<?xml version="1.0" encoding="utf-8"?>
<!-- Generator: Adobe Illustrator 16.0.4, SVG Export Plug-In . SVG Version: 6.00 Build 0)  -->
<!DOCTYPE svg PUBLIC "-//W3C//DTD SVG 1.1//EN" "http://www.w3.org/Graphics/SVG/1.1/DTD/svg11.dtd">
<svg version="1.1" id="Layer_1" xmlns="http://www.w3.org/2000/svg" xmlns:xlink="http://www.w3.org/1999/xlink" x="0px" y="0px"
	 width="450.82px" height="257px" viewBox="0 0 450.82 257" enable-background="new 0 0 450.82 257" xml:space="preserve">
<pattern  x="-69.5" y="-267.5" width="75.657" height="57" patternUnits="userSpaceOnUse" id="Herringbone_2_Color" viewBox="0.14 -67.42 75.657 57" overflow="visible">
	<g>
		<polygon fill="none" points="0.14,-67.42 75.797,-67.42 75.797,-10.42 0.14,-10.42 		"/>
		<g>
			<polygon fill="#8F774E" points="75.657,0 75.657,-28.678 151.447,-28.678 151.447,0 			"/>
		</g>
		<g>
			<polygon fill="#8F774E" points="0,0 0,-28.678 75.79,-28.678 75.79,0 			"/>
			<path fill="#715725" d="M10.448-7.743c-0.756-0.658-0.836-1.801-0.179-2.559c0.656-0.754,1.802-0.834,2.557-0.178l5.471,4.756
				c0.756,0.658,0.836,1.803,0.18,2.559c-0.657,0.754-1.802,0.834-2.558,0.178L10.448-7.743z"/>
			<path fill="#715725" d="M29.362-7.743c-0.755-0.658-0.835-1.801-0.179-2.559c0.656-0.754,1.802-0.834,2.557-0.178l5.472,4.756
				c0.755,0.658,0.835,1.803,0.18,2.559c-0.657,0.754-1.803,0.834-2.558,0.178L29.362-7.743z"/>
			<path fill="#715725" d="M48.276-7.743c-0.755-0.658-0.835-1.801-0.178-2.559c0.655-0.754,1.801-0.834,2.557-0.178l5.471,4.756
				c0.755,0.658,0.835,1.803,0.18,2.559c-0.657,0.754-1.803,0.834-2.558,0.178L48.276-7.743z"/>
			<path fill="#715725" d="M67.191-7.743c-0.756-0.658-0.836-1.801-0.18-2.559c0.657-0.754,1.802-0.834,2.558-0.178l5.471,4.756
				c0.756,0.658,0.836,1.803,0.179,2.559c-0.656,0.754-1.801,0.834-2.557,0.178L67.191-7.743z"/>
			<path fill="#715725" d="M10.448-14.868c-0.756-0.658-0.836-1.801-0.179-2.559c0.656-0.754,1.802-0.834,2.557-0.178l5.471,4.756
				c0.756,0.658,0.836,1.803,0.18,2.559c-0.657,0.754-1.802,0.834-2.558,0.178L10.448-14.868z"/>
			<path fill="#715725" d="M29.362-14.868c-0.755-0.658-0.835-1.801-0.179-2.559c0.656-0.754,1.802-0.834,2.557-0.178l5.472,4.756
				c0.755,0.658,0.835,1.803,0.18,2.559c-0.657,0.754-1.803,0.834-2.558,0.178L29.362-14.868z"/>
			<path fill="#715725" d="M48.276-14.868c-0.755-0.658-0.835-1.801-0.178-2.559c0.655-0.754,1.801-0.834,2.557-0.178l5.471,4.756
				c0.755,0.658,0.835,1.803,0.18,2.559c-0.657,0.754-1.803,0.834-2.558,0.178L48.276-14.868z"/>
			<path fill="#715725" d="M67.191-14.868c-0.756-0.658-0.836-1.801-0.18-2.559c0.657-0.754,1.802-0.834,2.558-0.178l5.471,4.756
				c0.756,0.658,0.836,1.803,0.179,2.559c-0.656,0.754-1.801,0.834-2.557,0.178L67.191-14.868z"/>
			<path fill="#715725" d="M10.448-21.993c-0.756-0.658-0.836-1.801-0.179-2.559c0.656-0.754,1.802-0.834,2.557-0.178l5.471,4.756
				c0.756,0.658,0.836,1.803,0.18,2.559c-0.657,0.754-1.802,0.834-2.558,0.178L10.448-21.993z"/>
			<path fill="#715725" d="M29.362-21.993c-0.755-0.658-0.835-1.801-0.179-2.559c0.656-0.754,1.802-0.834,2.557-0.178l5.472,4.756
				c0.755,0.658,0.835,1.803,0.18,2.559c-0.657,0.754-1.803,0.834-2.558,0.178L29.362-21.993z"/>
			<path fill="#715725" d="M48.276-21.993c-0.755-0.658-0.835-1.801-0.178-2.559c0.655-0.754,1.801-0.834,2.557-0.178l5.471,4.756
				c0.755,0.658,0.835,1.803,0.18,2.559c-0.657,0.754-1.803,0.834-2.558,0.178L48.276-21.993z"/>
			<path fill="#715725" d="M67.191-21.993c-0.756-0.658-0.836-1.801-0.18-2.559c0.657-0.754,1.802-0.834,2.558-0.178l5.471,4.756
				c0.756,0.658,0.836,1.803,0.179,2.559c-0.656,0.754-1.801,0.834-2.557,0.178L67.191-21.993z"/>
			<path fill="#715725" d="M8.84-11.306c0.756-0.656,0.836-1.803,0.18-2.557c-0.657-0.756-1.803-0.836-2.558-0.18L0.991-9.286
				C0.236-8.628,0.156-7.483,0.813-6.729c0.655,0.756,1.8,0.836,2.556,0.18L8.84-11.306z"/>
			<path fill="#715725" d="M27.755-11.306c0.755-0.656,0.835-1.803,0.179-2.557c-0.656-0.756-1.802-0.836-2.558-0.18l-5.471,4.756
				c-0.756,0.658-0.836,1.803-0.179,2.557c0.656,0.756,1.802,0.836,2.557,0.18L27.755-11.306z"/>
			<path fill="#715725" d="M8.84-25.262c0.756-0.656,0.836-1.803,0.18-2.557c-0.657-0.756-1.803-0.836-2.558-0.18l-5.471,4.756
				c-0.755,0.658-0.835,1.803-0.178,2.557c0.655,0.756,1.8,0.836,2.556,0.18L8.84-25.262z"/>
			<path fill="#715725" d="M8.84-18.431c0.756-0.656,0.836-1.803,0.18-2.557c-0.657-0.756-1.803-0.836-2.558-0.18l-5.471,4.756
				c-0.755,0.658-0.835,1.803-0.178,2.557c0.655,0.756,1.8,0.836,2.556,0.18L8.84-18.431z"/>
			<path fill="#715725" d="M27.755-25.262c0.755-0.656,0.835-1.803,0.179-2.557c-0.656-0.756-1.802-0.836-2.558-0.18l-5.471,4.756
				c-0.756,0.658-0.836,1.803-0.179,2.557c0.656,0.756,1.802,0.836,2.557,0.18L27.755-25.262z"/>
			<path fill="#715725" d="M27.755-18.431c0.755-0.656,0.835-1.803,0.179-2.557c-0.656-0.756-1.802-0.836-2.558-0.18l-5.471,4.756
				c-0.756,0.658-0.836,1.803-0.179,2.557c0.656,0.756,1.802,0.836,2.557,0.18L27.755-18.431z"/>
			<path fill="#715725" d="M46.669-11.306c0.755-0.656,0.835-1.803,0.18-2.557c-0.657-0.756-1.803-0.836-2.559-0.18l-5.471,4.756
				c-0.755,0.658-0.835,1.803-0.178,2.557c0.655,0.756,1.801,0.836,2.556,0.18L46.669-11.306z"/>
			<path fill="#715725" d="M65.583-11.306c0.756-0.656,0.836-1.803,0.179-2.557c-0.656-0.756-1.802-0.836-2.557-0.18l-5.472,4.756
				c-0.755,0.658-0.835,1.803-0.178,2.557c0.655,0.756,1.801,0.836,2.557,0.18L65.583-11.306z"/>
			<path fill="#715725" d="M46.669-25.262c0.755-0.656,0.835-1.803,0.18-2.557c-0.657-0.756-1.803-0.836-2.559-0.18l-5.471,4.756
				c-0.755,0.658-0.835,1.803-0.178,2.557c0.655,0.756,1.801,0.836,2.556,0.18L46.669-25.262z"/>
			<path fill="#715725" d="M46.669-18.431c0.755-0.656,0.835-1.803,0.18-2.557c-0.657-0.756-1.803-0.836-2.559-0.18l-5.471,4.756
				c-0.755,0.658-0.835,1.803-0.178,2.557c0.655,0.756,1.801,0.836,2.556,0.18L46.669-18.431z"/>
			<path fill="#715725" d="M65.583-25.262c0.756-0.656,0.836-1.803,0.179-2.557c-0.656-0.756-1.802-0.836-2.557-0.18l-5.472,4.756
				c-0.755,0.658-0.835,1.803-0.178,2.557c0.655,0.756,1.801,0.836,2.557,0.18L65.583-25.262z"/>
			<path fill="#715725" d="M65.583-18.431c0.756-0.656,0.836-1.803,0.179-2.557c-0.656-0.756-1.802-0.836-2.557-0.18l-5.472,4.756
				c-0.755,0.658-0.835,1.803-0.178,2.557c0.655,0.756,1.801,0.836,2.557,0.18L65.583-18.431z"/>
		</g>
		<g>
			<polygon fill="#8F774E" points="75.657,-28.5 75.657,-57.178 151.447,-57.178 151.447,-28.5 			"/>
		</g>
		<g>
			<polygon fill="#8F774E" points="0,-28.5 0,-57.178 75.79,-57.178 75.79,-28.5 			"/>
			<path fill="#715725" d="M10.448-29.118c-0.756-0.658-0.836-1.801-0.179-2.559c0.656-0.754,1.802-0.834,2.557-0.178l5.471,4.756
				c0.756,0.658,0.836,1.803,0.18,2.559c-0.657,0.754-1.802,0.834-2.558,0.178L10.448-29.118z"/>
			<path fill="#715725" d="M29.362-29.118c-0.755-0.658-0.835-1.801-0.179-2.559c0.656-0.754,1.802-0.834,2.557-0.178l5.472,4.756
				c0.755,0.658,0.835,1.803,0.18,2.559c-0.657,0.754-1.803,0.834-2.558,0.178L29.362-29.118z"/>
			<path fill="#715725" d="M48.276-29.118c-0.755-0.658-0.835-1.801-0.178-2.559c0.655-0.754,1.801-0.834,2.557-0.178l5.471,4.756
				c0.755,0.658,0.835,1.803,0.18,2.559c-0.657,0.754-1.803,0.834-2.558,0.178L48.276-29.118z"/>
			<path fill="#715725" d="M67.191-29.118c-0.756-0.658-0.836-1.801-0.18-2.559c0.657-0.754,1.802-0.834,2.558-0.178l5.471,4.756
				c0.756,0.658,0.836,1.803,0.179,2.559c-0.656,0.754-1.801,0.834-2.557,0.178L67.191-29.118z"/>
			<path fill="#715725" d="M10.448-36.243c-0.756-0.658-0.836-1.801-0.179-2.559c0.656-0.754,1.802-0.834,2.557-0.178l5.471,4.756
				c0.756,0.658,0.836,1.803,0.18,2.559c-0.657,0.754-1.802,0.834-2.558,0.178L10.448-36.243z"/>
			<path fill="#715725" d="M29.362-36.243c-0.755-0.658-0.835-1.801-0.179-2.559c0.656-0.754,1.802-0.834,2.557-0.178l5.472,4.756
				c0.755,0.658,0.835,1.803,0.18,2.559c-0.657,0.754-1.803,0.834-2.558,0.178L29.362-36.243z"/>
			<path fill="#715725" d="M48.276-36.243c-0.755-0.658-0.835-1.801-0.178-2.559c0.655-0.754,1.801-0.834,2.557-0.178l5.471,4.756
				c0.755,0.658,0.835,1.803,0.18,2.559c-0.657,0.754-1.803,0.834-2.558,0.178L48.276-36.243z"/>
			<path fill="#715725" d="M67.191-36.243c-0.756-0.658-0.836-1.801-0.18-2.559c0.657-0.754,1.802-0.834,2.558-0.178l5.471,4.756
				c0.756,0.658,0.836,1.803,0.179,2.559c-0.656,0.754-1.801,0.834-2.557,0.178L67.191-36.243z"/>
			<path fill="#715725" d="M10.448-43.368c-0.756-0.658-0.836-1.801-0.179-2.559c0.656-0.754,1.802-0.834,2.557-0.178l5.471,4.756
				c0.756,0.658,0.836,1.803,0.18,2.559c-0.657,0.754-1.802,0.834-2.558,0.178L10.448-43.368z"/>
			<path fill="#715725" d="M29.362-43.368c-0.755-0.658-0.835-1.801-0.179-2.559c0.656-0.754,1.802-0.834,2.557-0.178l5.472,4.756
				c0.755,0.658,0.835,1.803,0.18,2.559c-0.657,0.754-1.803,0.834-2.558,0.178L29.362-43.368z"/>
			<path fill="#715725" d="M48.276-43.368c-0.755-0.658-0.835-1.801-0.178-2.559c0.655-0.754,1.801-0.834,2.557-0.178l5.471,4.756
				c0.755,0.658,0.835,1.803,0.18,2.559c-0.657,0.754-1.803,0.834-2.558,0.178L48.276-43.368z"/>
			<path fill="#715725" d="M67.191-43.368c-0.756-0.658-0.836-1.801-0.18-2.559c0.657-0.754,1.802-0.834,2.558-0.178l5.471,4.756
				c0.756,0.658,0.836,1.803,0.179,2.559c-0.656,0.754-1.801,0.834-2.557,0.178L67.191-43.368z"/>
			<path fill="#715725" d="M10.448-50.493c-0.756-0.658-0.836-1.801-0.179-2.559c0.656-0.754,1.802-0.834,2.557-0.178l5.471,4.756
				c0.756,0.658,0.836,1.803,0.18,2.559c-0.657,0.754-1.802,0.834-2.558,0.178L10.448-50.493z"/>
			<path fill="#715725" d="M29.362-50.493c-0.755-0.658-0.835-1.801-0.179-2.559c0.656-0.754,1.802-0.834,2.557-0.178l5.472,4.756
				c0.755,0.658,0.835,1.803,0.18,2.559c-0.657,0.754-1.803,0.834-2.558,0.178L29.362-50.493z"/>
			<path fill="#715725" d="M48.276-50.493c-0.755-0.658-0.835-1.801-0.178-2.559c0.655-0.754,1.801-0.834,2.557-0.178l5.471,4.756
				c0.755,0.658,0.835,1.803,0.18,2.559c-0.657,0.754-1.803,0.834-2.558,0.178L48.276-50.493z"/>
			<path fill="#715725" d="M67.191-50.493c-0.756-0.658-0.836-1.801-0.18-2.559c0.657-0.754,1.802-0.834,2.558-0.178l5.471,4.756
				c0.756,0.658,0.836,1.803,0.179,2.559c-0.656,0.754-1.801,0.834-2.557,0.178L67.191-50.493z"/>
			<path fill="#715725" d="M8.84-32.681c0.756-0.656,0.836-1.803,0.18-2.557c-0.657-0.756-1.803-0.836-2.558-0.18l-5.471,4.756
				c-0.755,0.658-0.835,1.803-0.178,2.557c0.655,0.756,1.8,0.836,2.556,0.18L8.84-32.681z"/>
			<path fill="#715725" d="M27.755-32.681c0.755-0.656,0.835-1.803,0.179-2.557c-0.656-0.756-1.802-0.836-2.558-0.18l-5.471,4.756
				c-0.756,0.658-0.836,1.803-0.179,2.557c0.656,0.756,1.802,0.836,2.557,0.18L27.755-32.681z"/>
			<path fill="#715725" d="M8.84-39.806c0.756-0.656,0.836-1.803,0.18-2.557c-0.657-0.756-1.803-0.836-2.558-0.18l-5.471,4.756
				c-0.755,0.658-0.835,1.803-0.178,2.557c0.655,0.756,1.8,0.836,2.556,0.18L8.84-39.806z"/>
			<path fill="#715725" d="M27.755-39.806c0.755-0.656,0.835-1.803,0.179-2.557c-0.656-0.756-1.802-0.836-2.558-0.18l-5.471,4.756
				c-0.756,0.658-0.836,1.803-0.179,2.557c0.656,0.756,1.802,0.836,2.557,0.18L27.755-39.806z"/>
			<path fill="#715725" d="M46.669-32.681c0.755-0.656,0.835-1.803,0.18-2.557c-0.657-0.756-1.803-0.836-2.559-0.18l-5.471,4.756
				c-0.755,0.658-0.835,1.803-0.178,2.557c0.655,0.756,1.801,0.836,2.556,0.18L46.669-32.681z"/>
			<path fill="#715725" d="M65.583-32.681c0.756-0.656,0.836-1.803,0.179-2.557c-0.656-0.756-1.802-0.836-2.557-0.18l-5.472,4.756
				c-0.755,0.658-0.835,1.803-0.178,2.557c0.655,0.756,1.801,0.836,2.557,0.18L65.583-32.681z"/>
			<path fill="#715725" d="M8.84-53.762c0.756-0.656,0.836-1.803,0.18-2.557c-0.657-0.756-1.803-0.836-2.558-0.18l-5.471,4.756
				c-0.755,0.658-0.835,1.803-0.178,2.557c0.655,0.756,1.8,0.836,2.556,0.18L8.84-53.762z"/>
			<path fill="#715725" d="M8.84-46.931c0.756-0.656,0.836-1.803,0.18-2.557c-0.657-0.756-1.803-0.836-2.558-0.18l-5.471,4.756
				c-0.755,0.658-0.835,1.803-0.178,2.557c0.655,0.756,1.8,0.836,2.556,0.18L8.84-46.931z"/>
			<path fill="#715725" d="M27.755-53.762c0.755-0.656,0.835-1.803,0.179-2.557c-0.656-0.756-1.802-0.836-2.558-0.18l-5.471,4.756
				c-0.756,0.658-0.836,1.803-0.179,2.557c0.656,0.756,1.802,0.836,2.557,0.18L27.755-53.762z"/>
			<path fill="#715725" d="M27.755-46.931c0.755-0.656,0.835-1.803,0.179-2.557c-0.656-0.756-1.802-0.836-2.558-0.18l-5.471,4.756
				c-0.756,0.658-0.836,1.803-0.179,2.557c0.656,0.756,1.802,0.836,2.557,0.18L27.755-46.931z"/>
			<path fill="#715725" d="M46.669-39.806c0.755-0.656,0.835-1.803,0.18-2.557c-0.657-0.756-1.803-0.836-2.559-0.18l-5.471,4.756
				c-0.755,0.658-0.835,1.803-0.178,2.557c0.655,0.756,1.801,0.836,2.556,0.18L46.669-39.806z"/>
			<path fill="#715725" d="M65.583-39.806c0.756-0.656,0.836-1.803,0.179-2.557c-0.656-0.756-1.802-0.836-2.557-0.18l-5.472,4.756
				c-0.755,0.658-0.835,1.803-0.178,2.557c0.655,0.756,1.801,0.836,2.557,0.18L65.583-39.806z"/>
			<path fill="#715725" d="M46.669-53.762c0.755-0.656,0.835-1.803,0.18-2.557c-0.657-0.756-1.803-0.836-2.559-0.18l-5.471,4.756
				c-0.755,0.658-0.835,1.803-0.178,2.557c0.655,0.756,1.801,0.836,2.556,0.18L46.669-53.762z"/>
			<path fill="#715725" d="M46.669-46.931c0.755-0.656,0.835-1.803,0.18-2.557c-0.657-0.756-1.803-0.836-2.559-0.18l-5.471,4.756
				c-0.755,0.658-0.835,1.803-0.178,2.557c0.655,0.756,1.801,0.836,2.556,0.18L46.669-46.931z"/>
			<path fill="#715725" d="M65.583-53.762c0.756-0.656,0.836-1.803,0.179-2.557c-0.656-0.756-1.802-0.836-2.557-0.18l-5.472,4.756
				c-0.755,0.658-0.835,1.803-0.178,2.557c0.655,0.756,1.801,0.836,2.557,0.18L65.583-53.762z"/>
			<path fill="#715725" d="M65.583-46.931c0.756-0.656,0.836-1.803,0.179-2.557c-0.656-0.756-1.802-0.836-2.557-0.18l-5.472,4.756
				c-0.755,0.658-0.835,1.803-0.178,2.557c0.655,0.756,1.801,0.836,2.557,0.18L65.583-46.931z"/>
		</g>
		<g>
			<polygon fill="#8F774E" points="75.657,-57 75.657,-85.678 151.447,-85.678 151.447,-57 			"/>
		</g>
		<g>
			<polygon fill="#8F774E" points="0,-57 0,-85.678 75.79,-85.678 75.79,-57 			"/>
			<path fill="#715725" d="M10.448-57.618c-0.756-0.658-0.836-1.801-0.179-2.559c0.656-0.754,1.802-0.834,2.557-0.178l5.471,4.756
				c0.756,0.658,0.836,1.803,0.18,2.559c-0.657,0.754-1.802,0.834-2.558,0.178L10.448-57.618z"/>
			<path fill="#715725" d="M29.362-57.618c-0.755-0.658-0.835-1.801-0.179-2.559c0.656-0.754,1.802-0.834,2.557-0.178l5.472,4.756
				c0.755,0.658,0.835,1.803,0.18,2.559c-0.657,0.754-1.803,0.834-2.558,0.178L29.362-57.618z"/>
			<path fill="#715725" d="M48.276-57.618c-0.755-0.658-0.835-1.801-0.178-2.559c0.655-0.754,1.801-0.834,2.557-0.178l5.471,4.756
				c0.755,0.658,0.835,1.803,0.18,2.559c-0.657,0.754-1.803,0.834-2.558,0.178L48.276-57.618z"/>
			<path fill="#715725" d="M67.191-57.618c-0.756-0.658-0.836-1.801-0.18-2.559c0.657-0.754,1.802-0.834,2.558-0.178l5.471,4.756
				c0.756,0.658,0.836,1.803,0.179,2.559c-0.656,0.754-1.801,0.834-2.557,0.178L67.191-57.618z"/>
			<path fill="#715725" d="M10.448-64.743c-0.756-0.658-0.836-1.801-0.179-2.559c0.656-0.754,1.802-0.834,2.557-0.178l5.471,4.756
				c0.756,0.658,0.836,1.803,0.18,2.559c-0.657,0.754-1.802,0.834-2.558,0.178L10.448-64.743z"/>
			<path fill="#715725" d="M29.362-64.743c-0.755-0.658-0.835-1.801-0.179-2.559c0.656-0.754,1.802-0.834,2.557-0.178l5.472,4.756
				c0.755,0.658,0.835,1.803,0.18,2.559c-0.657,0.754-1.803,0.834-2.558,0.178L29.362-64.743z"/>
			<path fill="#715725" d="M48.276-64.743c-0.755-0.658-0.835-1.801-0.178-2.559c0.655-0.754,1.801-0.834,2.557-0.178l5.471,4.756
				c0.755,0.658,0.835,1.803,0.18,2.559c-0.657,0.754-1.803,0.834-2.558,0.178L48.276-64.743z"/>
			<path fill="#715725" d="M67.191-64.743c-0.756-0.658-0.836-1.801-0.18-2.559c0.657-0.754,1.802-0.834,2.558-0.178l5.471,4.756
				c0.756,0.658,0.836,1.803,0.179,2.559c-0.656,0.754-1.801,0.834-2.557,0.178L67.191-64.743z"/>
			<path fill="#715725" d="M10.448-71.868c-0.756-0.658-0.836-1.801-0.179-2.559c0.656-0.754,1.802-0.834,2.557-0.178l5.471,4.756
				c0.756,0.658,0.836,1.803,0.18,2.559c-0.657,0.754-1.802,0.834-2.558,0.178L10.448-71.868z"/>
			<path fill="#715725" d="M29.362-71.868c-0.755-0.658-0.835-1.801-0.179-2.559c0.656-0.754,1.802-0.834,2.557-0.178l5.472,4.756
				c0.755,0.658,0.835,1.803,0.18,2.559c-0.657,0.754-1.803,0.834-2.558,0.178L29.362-71.868z"/>
			<path fill="#715725" d="M48.276-71.868c-0.755-0.658-0.835-1.801-0.178-2.559c0.655-0.754,1.801-0.834,2.557-0.178l5.471,4.756
				c0.755,0.658,0.835,1.803,0.18,2.559c-0.657,0.754-1.803,0.834-2.558,0.178L48.276-71.868z"/>
			<path fill="#715725" d="M67.191-71.868c-0.756-0.658-0.836-1.801-0.18-2.559c0.657-0.754,1.802-0.834,2.558-0.178l5.471,4.756
				c0.756,0.658,0.836,1.803,0.179,2.559c-0.656,0.754-1.801,0.834-2.557,0.178L67.191-71.868z"/>
			<path fill="#715725" d="M8.84-61.181c0.756-0.656,0.836-1.803,0.18-2.557c-0.657-0.756-1.803-0.836-2.558-0.18l-5.471,4.756
				c-0.755,0.658-0.835,1.803-0.178,2.557c0.655,0.756,1.8,0.836,2.556,0.18L8.84-61.181z"/>
			<path fill="#715725" d="M27.755-61.181c0.755-0.656,0.835-1.803,0.179-2.557c-0.656-0.756-1.802-0.836-2.558-0.18l-5.471,4.756
				c-0.756,0.658-0.836,1.803-0.179,2.557c0.656,0.756,1.802,0.836,2.557,0.18L27.755-61.181z"/>
			<path fill="#715725" d="M8.84-68.306c0.756-0.656,0.836-1.803,0.18-2.557c-0.657-0.756-1.803-0.836-2.558-0.18l-5.471,4.756
				c-0.755,0.658-0.835,1.803-0.178,2.557c0.655,0.756,1.8,0.836,2.556,0.18L8.84-68.306z"/>
			<path fill="#715725" d="M27.755-68.306c0.755-0.656,0.835-1.803,0.179-2.557c-0.656-0.756-1.802-0.836-2.558-0.18l-5.471,4.756
				c-0.756,0.658-0.836,1.803-0.179,2.557c0.656,0.756,1.802,0.836,2.557,0.18L27.755-68.306z"/>
			<path fill="#715725" d="M46.669-61.181c0.755-0.656,0.835-1.803,0.18-2.557c-0.657-0.756-1.803-0.836-2.559-0.18l-5.471,4.756
				c-0.755,0.658-0.835,1.803-0.178,2.557c0.655,0.756,1.801,0.836,2.556,0.18L46.669-61.181z"/>
			<path fill="#715725" d="M65.583-61.181c0.756-0.656,0.836-1.803,0.179-2.557c-0.656-0.756-1.802-0.836-2.557-0.18l-5.472,4.756
				c-0.755,0.658-0.835,1.803-0.178,2.557c0.655,0.756,1.801,0.836,2.557,0.18L65.583-61.181z"/>
			<path fill="#715725" d="M46.669-68.306c0.755-0.656,0.835-1.803,0.18-2.557c-0.657-0.756-1.803-0.836-2.559-0.18l-5.471,4.756
				c-0.755,0.658-0.835,1.803-0.178,2.557c0.655,0.756,1.801,0.836,2.556,0.18L46.669-68.306z"/>
			<path fill="#715725" d="M65.583-68.306c0.756-0.656,0.836-1.803,0.179-2.557c-0.656-0.756-1.802-0.836-2.557-0.18l-5.472,4.756
				c-0.755,0.658-0.835,1.803-0.178,2.557c0.655,0.756,1.801,0.836,2.557,0.18L65.583-68.306z"/>
		</g>
	</g>
</pattern>
<pattern  x="-69.5" y="-267.5" width="72" height="72" patternUnits="userSpaceOnUse" id="Plaid_3_Color" viewBox="75 -147 72 72" overflow="visible">
	<g>
		<polygon fill="none" points="75,-147 147,-147 147,-75 75,-75 		"/>
		<g>
			<polygon fill="#FFE298" points="222,-71 222,-79 144,-79 144,-71 			"/>
			<polygon fill="#FFE298" points="143,0 151,0 151,-78 143,-78 			"/>
			<polygon fill="#FFCE77" points="151,-71 151,-79 143,-79 143,-71 			"/>
		</g>
		<g>
			<polygon fill="#FFE298" points="150,-71 150,-79 72,-79 72,-71 			"/>
			<polygon fill="#FFE298" points="107,0 115,0 115,-78 107,-78 			"/>
			<polygon fill="#FFE298" points="125,0 133,0 133,-78 125,-78 			"/>
			<polygon fill="#FFE298" points="143,0 151,0 151,-78 143,-78 			"/>
			<polygon fill="#FFE298" points="89,0 97,0 97,-78 89,-78 			"/>
			<polygon fill="#FFE298" points="71,0 79,0 79,-78 71,-78 			"/>
			<polygon fill="#FFCE77" points="79,-71 79,-79 71,-79 71,-71 			"/>
			<polygon fill="#FFCE77" points="97,-71 97,-79 89,-79 89,-71 			"/>
			<polygon fill="#FFCE77" points="115,-71 115,-79 107,-79 107,-71 			"/>
			<polygon fill="#FFCE77" points="133,-71 133,-79 125,-79 125,-71 			"/>
			<polygon fill="#FFCE77" points="151,-71 151,-79 143,-79 143,-71 			"/>
		</g>
		<g>
			<polygon fill="#FFE298" points="78,-71 78,-79 0,-79 0,-71 			"/>
			<polygon fill="#FFE298" points="71,0 79,0 79,-78 71,-78 			"/>
			<polygon fill="#FFCE77" points="79,-71 79,-79 71,-79 71,-71 			"/>
		</g>
		<g>
			<polygon fill="#FFE298" points="222,-107 222,-115 144,-115 144,-107 			"/>
			<polygon fill="#FFE298" points="222,-125 222,-133 144,-133 144,-125 			"/>
			<polygon fill="#FFE298" points="222,-143 222,-151 144,-151 144,-143 			"/>
			<polygon fill="#FFE298" points="222,-89 222,-97 144,-97 144,-89 			"/>
			<polygon fill="#FFE298" points="222,-71 222,-79 144,-79 144,-71 			"/>
			<polygon fill="#FFE298" points="143,-72 151,-72 151,-150 143,-150 			"/>
			<polygon fill="#FFCE77" points="151,-143 151,-151 143,-151 143,-143 			"/>
			<polygon fill="#FFCE77" points="151,-125 151,-133 143,-133 143,-125 			"/>
			<polygon fill="#FFCE77" points="151,-107 151,-115 143,-115 143,-107 			"/>
			<polygon fill="#FFCE77" points="151,-89 151,-97 143,-97 143,-89 			"/>
			<polygon fill="#FFCE77" points="151,-71 151,-79 143,-79 143,-71 			"/>
		</g>
		<g>
			<polygon fill="#FFE298" points="150,-107 150,-115 72,-115 72,-107 			"/>
			<polygon fill="#FFE298" points="150,-125 150,-133 72,-133 72,-125 			"/>
			<polygon fill="#FFE298" points="150,-143 150,-151 72,-151 72,-143 			"/>
			<polygon fill="#FFE298" points="150,-89 150,-97 72,-97 72,-89 			"/>
			<polygon fill="#FFE298" points="150,-71 150,-79 72,-79 72,-71 			"/>
			<polygon fill="#FFE298" points="107,-72 115,-72 115,-150 107,-150 			"/>
			<polygon fill="#FFE298" points="125,-72 133,-72 133,-150 125,-150 			"/>
			<polygon fill="#FFE298" points="143,-72 151,-72 151,-150 143,-150 			"/>
			<polygon fill="#FFE298" points="89,-72 97,-72 97,-150 89,-150 			"/>
			<polygon fill="#FFE298" points="71,-72 79,-72 79,-150 71,-150 			"/>
			<polygon fill="#FFCE77" points="79,-143 79,-151 71,-151 71,-143 			"/>
			<polygon fill="#FFCE77" points="97,-143 97,-151 89,-151 89,-143 			"/>
			<polygon fill="#FFCE77" points="115,-143 115,-151 107,-151 107,-143 			"/>
			<polygon fill="#FFCE77" points="133,-143 133,-151 125,-151 125,-143 			"/>
			<polygon fill="#FFCE77" points="151,-143 151,-151 143,-151 143,-143 			"/>
			<polygon fill="#FFCE77" points="79,-125 79,-133 71,-133 71,-125 			"/>
			<polygon fill="#FFCE77" points="97,-125 97,-133 89,-133 89,-125 			"/>
			<polygon fill="#FFCE77" points="115,-125 115,-133 107,-133 107,-125 			"/>
			<polygon fill="#FFCE77" points="133,-125 133,-133 125,-133 125,-125 			"/>
			<polygon fill="#FFCE77" points="151,-125 151,-133 143,-133 143,-125 			"/>
			<polygon fill="#FFCE77" points="79,-107 79,-115 71,-115 71,-107 			"/>
			<polygon fill="#FFCE77" points="97,-107 97,-115 89,-115 89,-107 			"/>
			<polygon fill="#FFCE77" points="115,-107 115,-115 107,-115 107,-107 			"/>
			<polygon fill="#FFCE77" points="133,-107 133,-115 125,-115 125,-107 			"/>
			<polygon fill="#FFCE77" points="151,-107 151,-115 143,-115 143,-107 			"/>
			<polygon fill="#FFCE77" points="79,-89 79,-97 71,-97 71,-89 			"/>
			<polygon fill="#FFCE77" points="97,-89 97,-97 89,-97 89,-89 			"/>
			<polygon fill="#FFCE77" points="115,-89 115,-97 107,-97 107,-89 			"/>
			<polygon fill="#FFCE77" points="133,-89 133,-97 125,-97 125,-89 			"/>
			<polygon fill="#FFCE77" points="151,-89 151,-97 143,-97 143,-89 			"/>
			<polygon fill="#FFCE77" points="79,-71 79,-79 71,-79 71,-71 			"/>
			<polygon fill="#FFCE77" points="97,-71 97,-79 89,-79 89,-71 			"/>
			<polygon fill="#FFCE77" points="115,-71 115,-79 107,-79 107,-71 			"/>
			<polygon fill="#FFCE77" points="133,-71 133,-79 125,-79 125,-71 			"/>
			<polygon fill="#FFCE77" points="151,-71 151,-79 143,-79 143,-71 			"/>
		</g>
		<g>
			<polygon fill="#FFE298" points="78,-107 78,-115 0,-115 0,-107 			"/>
			<polygon fill="#FFE298" points="78,-125 78,-133 0,-133 0,-125 			"/>
			<polygon fill="#FFE298" points="78,-143 78,-151 0,-151 0,-143 			"/>
			<polygon fill="#FFE298" points="78,-89 78,-97 0,-97 0,-89 			"/>
			<polygon fill="#FFE298" points="78,-71 78,-79 0,-79 0,-71 			"/>
			<polygon fill="#FFE298" points="71,-72 79,-72 79,-150 71,-150 			"/>
			<polygon fill="#FFCE77" points="79,-143 79,-151 71,-151 71,-143 			"/>
			<polygon fill="#FFCE77" points="79,-125 79,-133 71,-133 71,-125 			"/>
			<polygon fill="#FFCE77" points="79,-107 79,-115 71,-115 71,-107 			"/>
			<polygon fill="#FFCE77" points="79,-89 79,-97 71,-97 71,-89 			"/>
			<polygon fill="#FFCE77" points="79,-71 79,-79 71,-79 71,-71 			"/>
		</g>
		<g>
			<polygon fill="#FFE298" points="222,-143 222,-151 144,-151 144,-143 			"/>
			<polygon fill="#FFE298" points="143,-144 151,-144 151,-222 143,-222 			"/>
			<polygon fill="#FFCE77" points="151,-143 151,-151 143,-151 143,-143 			"/>
		</g>
		<g>
			<polygon fill="#FFE298" points="150,-143 150,-151 72,-151 72,-143 			"/>
			<polygon fill="#FFE298" points="107,-144 115,-144 115,-222 107,-222 			"/>
			<polygon fill="#FFE298" points="125,-144 133,-144 133,-222 125,-222 			"/>
			<polygon fill="#FFE298" points="143,-144 151,-144 151,-222 143,-222 			"/>
			<polygon fill="#FFE298" points="89,-144 97,-144 97,-222 89,-222 			"/>
			<polygon fill="#FFE298" points="71,-144 79,-144 79,-222 71,-222 			"/>
			<polygon fill="#FFCE77" points="79,-143 79,-151 71,-151 71,-143 			"/>
			<polygon fill="#FFCE77" points="97,-143 97,-151 89,-151 89,-143 			"/>
			<polygon fill="#FFCE77" points="115,-143 115,-151 107,-151 107,-143 			"/>
			<polygon fill="#FFCE77" points="133,-143 133,-151 125,-151 125,-143 			"/>
			<polygon fill="#FFCE77" points="151,-143 151,-151 143,-151 143,-143 			"/>
		</g>
		<g>
			<polygon fill="#FFE298" points="78,-143 78,-151 0,-151 0,-143 			"/>
			<polygon fill="#FFE298" points="71,-144 79,-144 79,-222 71,-222 			"/>
			<polygon fill="#FFCE77" points="79,-143 79,-151 71,-151 71,-143 			"/>
		</g>
	</g>
</pattern>
<g>
	<rect x="2.5" y="20.687" fill="url(#Herringbone_2_Color)" width="396" height="216"/>
	<g>
		<rect x="2.5" y="20.687" fill="url(#Plaid_3_Color)" width="396" height="216"/>
		<g>
			<path fill="#A76D29" d="M398.5,234.187c-34.816,0-69.633,0-104.449,0c-64.14,0-128.281,0-192.421,0c-33.043,0-66.086,0-99.129,0
				c0.833,0.833,1.667,1.667,2.5,2.5c0-48.435,0-96.869,0-145.303c0-23.565,0-47.131,0-70.697c-0.833,0.833-1.667,1.667-2.5,2.5
				c34.816,0,69.633,0,104.449,0c64.141,0,128.281,0,192.422,0c33.043,0,66.086,0,99.129,0c-0.833-0.833-1.667-1.667-2.5-2.5
				c0,48.435,0,96.869,0,145.303c0,23.566,0,47.132,0,70.697c0,3.225,5,3.225,5,0c0-48.435,0-96.869,0-145.303
				c0-23.565,0-47.131,0-70.697c0-1.363-1.137-2.5-2.5-2.5c-34.816,0-69.633,0-104.449,0c-64.14,0-128.281,0-192.421,0
				c-33.043,0-66.086,0-99.129,0c-1.363,0-2.5,1.137-2.5,2.5c0,48.435,0,96.869,0,145.303c0,23.566,0,47.132,0,70.697
				c0,1.362,1.137,2.5,2.5,2.5c34.816,0,69.633,0,104.449,0c64.141,0,128.281,0,192.422,0c33.043,0,66.086,0,99.129,0
				C401.725,239.187,401.725,234.187,398.5,234.187z"/>
		</g>
	</g>
	<path fill="url(#Herringbone_2_Color)" stroke="#A86C29" stroke-width="4" stroke-miterlimit="10" d="M362.5,192.687
		c0,6.627-5.373,12-12,12h-300c-6.627,0-12-5.373-12-12v-129c0-6.627,5.373-12,12-12h300c6.627,0,12,5.373,12,12V192.687z"/>
	<line fill="none" stroke="#A86C29" stroke-width="4" stroke-miterlimit="10" x1="41.246" y1="56.047" x2="2.5" y2="20.687"/>
	<line fill="none" stroke="#A86C29" stroke-width="4" stroke-miterlimit="10" x1="398.619" y1="235.86" x2="359.873" y2="200.5"/>
	<line fill="none" stroke="#A86C29" stroke-width="4" stroke-miterlimit="10" x1="359.873" y1="55.86" x2="398.619" y2="20.5"/>
	<line fill="none" stroke="#A86C29" stroke-width="4" stroke-miterlimit="10" x1="2.873" y1="236.86" x2="41.619" y2="201.5"/>
	<path fill="none" stroke="#A36A3B" stroke-miterlimit="10" d="M200.5,20.5"/>
	<g>
		<g>
			<path fill="#A36A3B" d="M203,20.5c0-6,0-12,0-18c-0.833,0.833-1.667,1.667-2.5,2.5c48.435,0,96.869,0,145.303,0
				c23.566,0,47.132,0,70.697,0c-0.833-0.833-1.667-1.667-2.5-2.5c0,11.812,0,23.625,0,35.437c0,3.266,4.861,6.46,6.92,8.519
				c5.442,5.443,10.886,10.886,16.329,16.329c1.425,1.425,2.85,2.85,4.274,4.274c-0.376-0.375-0.523-2.569-0.523-0.328
				c0,3.581,0,7.161,0,10.742c0,14.184,0,28.367,0,42.55c0,23.794,0,47.588,0,71.383c0,0.163,1.396-2.337,0.364-1.307
				c-0.587,0.588-1.175,1.176-1.763,1.764c-2.413,2.413-4.826,4.826-7.239,7.239c-5.166,5.166-10.333,10.332-15.499,15.499
				c-2.871,2.871-2.863,4.39-2.863,8.441c0,7.667,0,15.333,0,23c0,2.818,0,5.638,0,8.457c0.833-0.833,1.667-1.667,2.5-2.5
				c-48.435,0-96.869,0-145.303,0c-23.566,0-47.132,0-70.697,0c0.833,0.833,1.667,1.667,2.5,2.5c0-6,0-12,0-18c0-3.225-5-3.225-5,0
				c0,6,0,12,0,18c0,1.363,1.137,2.5,2.5,2.5c48.435,0,96.869,0,145.303,0c23.566,0,47.132,0,70.697,0c1.363,0,2.5-1.137,2.5-2.5
				c0-11.812,0-23.624,0-35.437c0-1.642-1.295,1.767-0.523,0.995c0.514-0.514,1.026-1.026,1.54-1.539
				c2.319-2.32,4.639-4.64,6.958-6.959c5.249-5.249,10.499-10.498,15.748-15.748c1.797-1.797,3.277-2.92,3.277-5.543
				c0-3.581,0-7.162,0-10.742c0-14.184,0-28.367,0-42.55c0-23.795,0-47.589,0-71.383c0-2.971-5.719-6.849-7.526-8.656
				c-5.415-5.416-10.831-10.831-16.246-16.246c-1.288-1.289-2.577-2.578-3.865-3.866c0.569,0.569,0.638,2.546,0.638,0.805
				c0-1.225,0-2.45,0-3.674c0-7.667,0-15.333,0-23c0-2.819,0-5.638,0-8.457c0-1.363-1.137-2.5-2.5-2.5c-48.435,0-96.869,0-145.303,0
				c-23.566,0-47.132,0-70.697,0c-1.363,0-2.5,1.137-2.5,2.5c0,6,0,12,0,18C198,23.724,203,23.724,203,20.5L203,20.5z"/>
		</g>
	</g>
	<g>
		<g>
			<path fill="#CD2027" d="M414.965,42.036c9,9,18,18,27,27c-0.488-1.179-0.977-2.357-1.465-3.536c0,42,0,84,0,126
				c0.488-1.179,0.977-2.357,1.465-3.535c-9,9-18,18-27,27c-4.564,4.563,2.507,11.635,7.07,7.07
				c8.534-8.533,17.067-17.066,25.602-25.601c4.598-4.598,2.863-12.766,2.863-18.815c0-30.11,0-60.22,0-90.33
				c0-5.548,0-11.097,0-16.646c0-2.81,0.611-6.603-1.559-8.773c-8.969-8.968-17.938-17.937-26.906-26.906
				C417.472,30.401,410.4,37.472,414.965,42.036L414.965,42.036z"/>
		</g>
	</g>
	<g>
		<polygon fill="#CD2027" points="445.301,98.324 438.855,89.999 445.301,81.674 		"/>
		<g>
			<path fill="#CD2027" d="M447.068,96.556c-2.148-2.775-4.297-5.55-6.445-8.325c0,1.178,0,2.357,0,3.535
				c2.148-2.775,4.297-5.55,6.445-8.325c-1.423-0.589-2.845-1.178-4.268-1.768c0,5.55,0,11.1,0,16.649c0,3.224,5,3.224,5,0
				c0-5.55,0-11.1,0-16.649c0-1.983-2.868-3.576-4.268-1.768c-2.148,2.775-4.297,5.55-6.445,8.325c-0.92,1.188-0.92,2.348,0,3.535
				c2.148,2.775,4.297,5.55,6.445,8.325C445.505,102.638,449.017,99.072,447.068,96.556z"/>
		</g>
	</g>
	<g>
		<polygon fill="#CD2027" points="445.078,113.948 438.633,105.623 445.078,97.298 		"/>
		<g>
			<path fill="#CD2027" d="M446.846,112.18c-2.148-2.775-4.297-5.55-6.445-8.325c0,1.178,0,2.357,0,3.535
				c2.148-2.775,4.297-5.55,6.445-8.325c-1.423-0.589-2.845-1.178-4.268-1.768c0,5.55,0,11.1,0,16.649c0,3.224,5,3.224,5,0
				c0-5.55,0-11.1,0-16.649c0-1.983-2.868-3.576-4.268-1.768c-2.148,2.775-4.297,5.55-6.445,8.325c-0.92,1.188-0.92,2.348,0,3.535
				c2.148,2.775,4.297,5.55,6.445,8.325C445.282,118.262,448.794,114.696,446.846,112.18z"/>
		</g>
	</g>
	<g>
		<polygon fill="#CD2027" points="445.189,129.193 438.744,120.868 445.189,112.543 		"/>
		<g>
			<path fill="#CD2027" d="M446.957,127.425c-2.148-2.775-4.297-5.55-6.445-8.325c0,1.178,0,2.357,0,3.535
				c2.148-2.775,4.297-5.55,6.445-8.325c-1.423-0.589-2.845-1.178-4.268-1.768c0,5.55,0,11.1,0,16.65c0,3.224,5,3.224,5,0
				c0-5.55,0-11.1,0-16.65c0-1.983-2.868-3.576-4.268-1.768c-2.148,2.775-4.297,5.55-6.445,8.325c-0.92,1.188-0.92,2.348,0,3.535
				c2.148,2.775,4.297,5.55,6.445,8.325C445.394,133.508,448.905,129.941,446.957,127.425z"/>
		</g>
	</g>
	<g>
		<polygon fill="#CD2027" points="444.967,144.816 438.521,136.492 444.967,128.167 		"/>
		<g>
			<path fill="#CD2027" d="M446.734,143.049c-2.148-2.774-4.297-5.549-6.445-8.324c0,1.178,0,2.357,0,3.535
				c2.148-2.775,4.297-5.55,6.445-8.324c-1.423-0.59-2.845-1.179-4.268-1.768c0,5.549,0,11.1,0,16.649c0,3.225,5,3.225,5,0
				c0-5.549,0-11.1,0-16.649c0-1.983-2.868-3.576-4.268-1.768c-2.148,2.775-4.297,5.549-6.445,8.325c-0.92,1.188-0.92,2.348,0,3.535
				c2.148,2.775,4.297,5.55,6.445,8.324C445.171,149.131,448.683,145.564,446.734,143.049z"/>
		</g>
	</g>
	<g>
		<polygon fill="#CD2027" points="445.078,160.381 438.633,152.056 445.078,143.73 		"/>
		<g>
			<path fill="#CD2027" d="M446.846,158.613c-2.148-2.775-4.297-5.551-6.445-8.325c0,1.179,0,2.356,0,3.535
				c2.148-2.774,4.297-5.55,6.445-8.325c-1.423-0.588-2.845-1.178-4.268-1.768c0,5.551,0,11.1,0,16.65c0,3.224,5,3.224,5,0
				c0-5.551,0-11.1,0-16.65c0-1.982-2.868-3.575-4.268-1.768c-2.148,2.775-4.297,5.551-6.445,8.325c-0.92,1.188-0.92,2.348,0,3.535
				c2.148,2.774,4.297,5.55,6.445,8.325C445.282,164.695,448.794,161.129,446.846,158.613z"/>
		</g>
	</g>
	<g>
		<polygon fill="#CD2027" points="444.855,176.004 438.41,167.68 444.855,159.355 		"/>
		<g>
			<path fill="#CD2027" d="M446.623,174.236c-2.148-2.774-4.297-5.549-6.445-8.324c0,1.178,0,2.357,0,3.535
				c2.148-2.775,4.297-5.55,6.445-8.324c-1.423-0.59-2.845-1.179-4.268-1.768c0,5.549,0,11.1,0,16.648c0,3.225,5,3.225,5,0
				c0-5.549,0-11.1,0-16.648c0-1.983-2.868-3.576-4.268-1.768c-2.148,2.774-4.297,5.549-6.445,8.324c-0.92,1.188-0.92,2.348,0,3.535
				c2.148,2.775,4.297,5.55,6.445,8.324C445.06,180.318,448.571,176.752,446.623,174.236z"/>
		</g>
	</g>
</g>
</svg>
