<?xml version="1.0" encoding="utf-8"?>
<!-- Generator: Adobe Illustrator 16.0.4, SVG Export Plug-In . SVG Version: 6.00 Build 0)  -->
<!DOCTYPE svg PUBLIC "-//W3C//DTD SVG 1.1//EN" "http://www.w3.org/Graphics/SVG/1.1/DTD/svg11.dtd">
<svg version="1.1" id="Layer_1" xmlns="http://www.w3.org/2000/svg" xmlns:xlink="http://www.w3.org/1999/xlink" x="0px" y="0px"
	 width="80.851px" height="89.686px" viewBox="0 0 80.851 89.686" enable-background="new 0 0 80.851 89.686" xml:space="preserve">
<path fill="#57BC31" stroke="#57BC31" stroke-miterlimit="10" d="M-183.961,20.51"/>
<g>
	<path fill="#BCEA63" stroke="#BCEA63" stroke-miterlimit="10" d="M24.059,42.064c0,0,5.515,11.779,1.755,28.571
		s-0.251,17.293-0.251,17.293l13.784,1.253l5.765-1.002c0,0-0.753-25.564,2.506-26.316s2.006-3.007,2.006-3.007L47.617,56.1
		c0,0,1.505-17.795,6.016-16.291S24.059,42.064,24.059,42.064z"/>
	<g>
		<path fill="#49BF2C" d="M28.82,47.828c0,0,1.166,1.099,2.543,3.067c0.325,0.503,0.705,1.032,1.046,1.631
			c0.363,0.585,0.725,1.218,1.046,1.899c0.354,0.665,0.636,1.395,0.943,2.125c0.271,0.745,0.528,1.511,0.755,2.285
			c0.16,0.793,0.415,1.565,0.489,2.362c0.111,0.79,0.222,1.567,0.206,2.33c0.004,0.379,0.009,0.752,0.014,1.117
			c0.002,0.364-0.072,0.72-0.103,1.065c-0.09,0.689-0.126,1.345-0.307,1.927c-0.141,0.589-0.289,1.121-0.422,1.59
			c-0.192,0.449-0.359,0.841-0.498,1.164c-0.278,0.641-0.449,0.996-0.449,0.996s0.097-0.386,0.266-1.061
			c0.09-0.332,0.198-0.735,0.322-1.197c0.061-0.478,0.129-1.013,0.227-1.588c0.126-0.572,0.104-1.212,0.133-1.877
			c0.054-0.666-0.016-1.367-0.062-2.092c-0.008-0.728-0.173-1.464-0.278-2.218c-0.08-0.759-0.341-1.5-0.501-2.257
			c-0.207-0.746-0.445-1.488-0.694-2.211c-0.295-0.708-0.515-1.434-0.837-2.092c-0.294-0.671-0.579-1.32-0.886-1.92
			c-0.282-0.613-0.608-1.162-0.885-1.684c-0.592-1.018-1.076-1.882-1.467-2.453C29.049,48.155,28.82,47.828,28.82,47.828z"/>
	</g>
	<path fill="#49BF2C" stroke="#BCEA63" stroke-miterlimit="10" d="M8.019,75.397"/>
	<g>
		
			<ellipse transform="matrix(0.9809 0.1945 -0.1945 0.9809 4.3992 -8.0121)" fill="#49BF2C" cx="43" cy="18.396" rx="24.061" ry="17.168"/>
		<g>
			<path fill="#49BF2C" d="M65.159,23.282c-5.285,21.491-47.571,11.697-44.317-9.771C22.781,0.713,40.393,0.443,49.683,3.436
				C58.053,6.132,66.606,13.729,65.159,23.282c-0.153,1.01,2.751,0.474,2.885-0.412c3.67-24.229-44.351-32.284-50.087-8.947
				C14.716,27.109,31.609,35.125,41.86,36.428c10.005,1.271,23.484-2.581,26.184-13.558C68.275,21.929,65.379,22.387,65.159,23.282z
				"/>
		</g>
	</g>
	<ellipse fill="#49BF2C" stroke="#49BF2C" stroke-miterlimit="10" cx="11.778" cy="28.779" rx="11.278" ry="11.529"/>
	
		<ellipse transform="matrix(0.9777 0.21 -0.21 0.9777 3.3961 -4.0029)" fill="#2B8911" cx="20.551" cy="13.994" rx="13.033" ry="7.018"/>
	
		<ellipse transform="matrix(0.9052 0.4249 -0.4249 0.9052 20.4769 -1.164)" fill="#4CA534" cx="12.848" cy="45.326" rx="8.396" ry="6.257"/>
	<ellipse fill="#50893F" stroke="#50893F" stroke-miterlimit="10" cx="30.198" cy="39.056" rx="16.416" ry="15.791"/>
	<ellipse fill="#49BF2C" stroke="#49BF2C" stroke-miterlimit="10" cx="47.618" cy="48.204" rx="7.77" ry="7.644"/>
	<circle fill="#49BF2C" stroke="#49BF2C" stroke-miterlimit="10" cx="48.37" cy="38.807" r="8.02"/>
	<g>
		
			<ellipse transform="matrix(0.9617 0.2739 -0.2739 0.9617 11.7284 -17.1556)" fill="#4C893B" cx="67.292" cy="33.417" rx="12.406" ry="9.649"/>
		<g>
			<path fill="#4C893B" d="M77.831,34.832c-3.35,9.134-23.283,7.849-21.079-2.83C58.801,22.071,79.945,24.589,77.831,34.832
				c-0.299,1.452,2.61,4.803,2.783,3.967c2.868-13.9-21.165-25.702-26.646-10.764c-2.119,5.776,3.103,12.123,7.47,15.08
				c6.074,4.113,16.41,3.224,19.176-4.316C81.113,37.437,78.197,33.834,77.831,34.832z"/>
		</g>
	</g>
	<ellipse fill="#49BF2C" stroke="#49BF2C" stroke-miterlimit="10" cx="39.221" cy="53.342" rx="5.639" ry="5.264"/>
	
		<ellipse transform="matrix(0.9765 0.2156 -0.2156 0.9765 3.7328 -7.4303)" fill="#2AB53A" cx="35.928" cy="13.396" rx="12.643" ry="10.565"/>
	<path fill="#369617" d="M67.167,19.381c0,6.713-6.51,12.156-14.538,12.156c-8.026,0-14.535-5.443-14.535-12.156
		c0-6.711,6.509-12.154,14.535-12.154C60.657,7.227,67.167,12.67,67.167,19.381z"/>
	
		<ellipse transform="matrix(0.7192 0.6948 -0.6948 0.7192 48.2067 -29.4752)" fill="#2EBC3F" cx="60.567" cy="44.899" rx="9.029" ry="9.9"/>
	<g>
		
			<ellipse transform="matrix(0.9404 0.34 -0.34 0.9404 14.3773 -20.4889)" fill="#369617" cx="65.662" cy="30.787" rx="9.023" ry="8.52"/>
		<path fill="#369617" d="M74.194,33.873c0,0-0.083,0.2-0.237,0.573c-0.156,0.368-0.434,0.909-0.862,1.535
			c-0.448,0.611-1.031,1.352-1.893,2.007c-0.855,0.649-1.952,1.26-3.269,1.573c-1.309,0.324-2.82,0.333-4.321-0.05
			c-0.375-0.115-0.731-0.224-1.125-0.38c-0.347-0.165-0.691-0.299-1.051-0.524c-0.732-0.391-1.36-0.911-1.973-1.477
			c-1.18-1.175-2.096-2.657-2.59-4.314c-0.486-1.663-0.493-3.473,0.051-5.204c0.267-0.795,0.688-1.647,1.203-2.373
			c0.548-0.712,1.196-1.34,1.915-1.869c1.464-1.028,3.199-1.576,4.901-1.674c1.694-0.08,3.386,0.309,4.737,0.987
			c1.444,0.713,2.54,1.711,3.354,2.797s1.259,2.263,1.501,3.31c0.242,1.057,0.217,1.999,0.169,2.756
			c-0.071,0.759-0.206,1.344-0.323,1.731C74.26,33.665,74.194,33.873,74.194,33.873z M74.101,33.836c0,0,0.06-0.204,0.171-0.589
			c0.106-0.385,0.231-0.966,0.244-1.712c0.019-0.743-0.092-1.651-0.415-2.623c-0.327-0.971-0.904-1.984-1.717-2.912
			c-0.798-0.929-1.898-1.766-3.114-2.358c-1.312-0.605-2.749-0.933-4.284-0.91c-0.762,0.028-1.533,0.146-2.289,0.365
			c-0.748,0.24-1.479,0.57-2.158,1.002c-0.671,0.443-1.287,0.98-1.821,1.604c-0.524,0.643-0.938,1.309-1.288,2.124
			c-0.284,0.751-0.482,1.592-0.545,2.423c-0.021,0.839,0.079,1.676,0.288,2.481c0.23,0.801,0.592,1.553,1.037,2.234
			c0.459,0.675,1.018,1.26,1.615,1.767c0.615,0.478,1.263,0.926,1.933,1.214c0.312,0.171,0.699,0.285,1.048,0.423
			c0.316,0.108,0.685,0.206,1.02,0.293c1.379,0.315,2.729,0.317,3.948,0.123c1.222-0.194,2.312-0.614,3.184-1.152
			c0.871-0.541,1.537-1.17,1.997-1.755c0.468-0.585,0.738-1.105,0.902-1.474C74.016,34.032,74.101,33.836,74.101,33.836z"/>
	</g>
	<ellipse fill="#369617" stroke="#369617" stroke-miterlimit="10" cx="46.74" cy="46.826" rx="7.394" ry="5.514"/>
	<g>
		<ellipse fill="#369617" cx="19.421" cy="26.4" rx="13.659" ry="11.653"/>
		<g>
			<path fill="#369617" d="M31.624,26.555c-0.87,13.788-21.869,13.63-24.333,0.728c-1.427-7.473,6.86-11.843,13.078-11.558
				c6.07,0.279,10.89,5.163,11.262,11.064c0.069,1.088,2.976,0.448,2.898-0.777c-1.05-16.635-29.2-15.68-30.224,0.543
				c-0.484,7.668,8.182,12.711,14.943,12.4c7.418-0.341,14.779-4.667,15.287-12.709C34.619,24.927,31.693,25.457,31.624,26.555z"/>
		</g>
	</g>
	<ellipse fill="#57AA30" cx="54.154" cy="17.224" rx="11.153" ry="8.647"/>
	<g>
		<ellipse fill="#66AF4A" cx="37.843" cy="31.662" rx="10.777" ry="8.396"/>
		<g>
			<path fill="#66AF4A" d="M46.202,32.115c-0.652,8.812-16.102,7.426-16.719-0.906C28.849,22.629,45.578,23.689,46.202,32.115
				c0.196,2.65,5.01,1.444,4.836-0.906c-1.034-13.968-25.394-12.559-26.391,0.906c-0.522,7.06,8.372,10.086,13.884,9.839
				c6.088-0.273,12.037-4.402,12.507-10.745C51.229,28.627,46.376,29.77,46.202,32.115z"/>
		</g>
	</g>
	<g>
		<path fill="#49BF2C" d="M30.324,79.157c0,0-0.071,0.618-0.179,1.545c-0.093,0.913-0.213,2.11-0.187,3.291
			c0.016,0.294-0.005,0.593,0.036,0.879c0.035,0.286,0.028,0.576,0.084,0.846c0.044,0.271,0.065,0.541,0.129,0.787
			c0.061,0.245,0.084,0.493,0.158,0.704c0.065,0.214,0.116,0.417,0.162,0.6c0.062,0.176,0.118,0.33,0.163,0.456
			c0.085,0.265,0.134,0.416,0.134,0.416s-0.113-0.107-0.304-0.313c-0.202-0.199-0.449-0.515-0.687-0.939
			c-0.139-0.204-0.231-0.448-0.341-0.706c-0.119-0.255-0.205-0.536-0.278-0.832c-0.086-0.294-0.143-0.603-0.182-0.92
			c-0.055-0.316-0.05-0.64-0.075-0.963c0.007-0.646,0.054-1.289,0.179-1.876c0.109-0.589,0.281-1.122,0.452-1.566
			C29.934,79.673,30.324,79.157,30.324,79.157z"/>
	</g>
	<g>
		<path fill="#49BF2C" d="M33.332,63.367c0,0,0.092,0.076,0.214,0.24c0.134,0.162,0.289,0.414,0.438,0.735
			c0.087,0.158,0.142,0.341,0.197,0.537c0.051,0.195,0.138,0.401,0.155,0.623c0.02,0.222,0.053,0.452,0.06,0.688
			c0.025,0.236-0.005,0.474-0.036,0.712c-0.04,0.236-0.08,0.473-0.119,0.706c-0.041,0.231-0.168,0.437-0.244,0.646
			c-0.083,0.207-0.181,0.399-0.271,0.581c-0.07,0.19-0.225,0.325-0.331,0.465c-0.454,0.549-0.814,0.834-0.814,0.834
			s0.087-0.487,0.304-1.096c0.044-0.158,0.133-0.309,0.155-0.495c0.034-0.182,0.067-0.371,0.119-0.56
			c0.044-0.191,0.105-0.383,0.139-0.583c0.023-0.202,0.047-0.407,0.069-0.612c0.039-0.203,0.079-0.406,0.065-0.611
			c-0.004-0.203,0.02-0.404,0.029-0.601c0.008-0.196-0.014-0.386-0.013-0.569c-0.01-0.182,0.005-0.361-0.019-0.521
			c-0.027-0.324-0.038-0.604-0.064-0.799C33.352,63.486,33.332,63.367,33.332,63.367z"/>
	</g>
</g>
</svg>
