<?xml version="1.0" encoding="utf-8"?>
<!-- Generator: Adobe Illustrator 16.0.4, SVG Export Plug-In . SVG Version: 6.00 Build 0)  -->
<!DOCTYPE svg PUBLIC "-//W3C//DTD SVG 1.1//EN" "http://www.w3.org/Graphics/SVG/1.1/DTD/svg11.dtd">
<svg version="1.1" id="Layer_2" xmlns="http://www.w3.org/2000/svg" xmlns:xlink="http://www.w3.org/1999/xlink" x="0px" y="0px"
	 width="117.186px" height="96.402px" viewBox="0 0 117.186 96.402" enable-background="new 0 0 117.186 96.402"
	 xml:space="preserve">
<g>
	<path fill="#F9E7AC" enable-background="new    " d="M9.845,51.348c0,0,55.889-44.862,70.927-49.624
		c15.038-4.763,27.318,1.253,31.83,7.018c4.426,5.655,8.771,20.05-3.008,31.328s-68.17,50.376-68.17,50.376
		S13.605,107.238,3.329,84.43C-6.947,61.623,9.845,51.348,9.845,51.348z"/>
	<ellipse fill="#E2BF60" cx="88.162" cy="7.868" rx="4.386" ry="2.631"/>
	<ellipse fill="#E2BF60" cx="106.708" cy="31.678" rx="4.135" ry="5.89"/>
	<ellipse fill="#F9CD53" cx="64.979" cy="61.377" rx="8.521" ry="4.762"/>
	<ellipse fill="#E2BF60" cx="82.773" cy="32.805" rx="3.008" ry="2.005"/>
	<ellipse fill="#EFCD6F" cx="85.029" cy="29.547" rx="1.002" ry="0.752"/>
	<ellipse fill="#E2BF60" cx="83.15" cy="26.54" rx="1.378" ry="1.003"/>
	
		<ellipse transform="matrix(-0.2309 -0.973 0.973 -0.2309 11.1514 97.9878)" fill="#E2BF60" cx="44.302" cy="44.587" rx="4.261" ry="6.267"/>
	<ellipse fill="#EFCC6A" cx="42.298" cy="35.813" rx="3.384" ry="2.757"/>
	<ellipse fill="#EDE06B" cx="25.067" cy="73.092" rx="22.553" ry="20.734"/>
	<path fill="#86D33C" d="M22.435,53.964c0,0-3.5-3.833-5.167-2.167s0,2.167-0.167,3s-1.333,1.5-2.5,1.5s-3.5-1.667-4.333-0.667
		s-3.833,0.333-3.833,1.5s-3.667-0.833,1.667,6.833c5.333,7.667,21.333,11.333,22.333,11.333s8.333,3.834,8.333,3.834
		s5.167,1.166,5.5,0.166s-1.5-4.5-2.333-6s1-2.666,3.333-1.332c2.333,1.332,2.667-1.334,1.833-2
		c-0.833-0.668,1.167-3.168-2.167-3.834s-0.833-7.334-3.5-6.167s-2.167-3.833-4.5-2.333s-0.5-0.334-4.167-3.167s-5.833-2.833-7-1
		S22.769,53.797,22.435,53.964z"/>
	<path fill="#B1D35C" d="M22.848,55.629c0,0-3.047-3.336-4.498-1.886c-1.452,1.45,0,1.886-0.146,2.611s-1.161,1.306-2.177,1.306
		s-3.047-1.451-3.772-0.58c-0.725,0.87-3.336,0.289-3.336,1.306s-3.192-0.726,1.452,5.948c4.643,6.675,18.571,9.866,19.441,9.866
		c0.871,0,7.255,3.338,7.255,3.338s4.498,1.015,4.788,0.145c0.289-0.871-1.307-3.918-2.031-5.224
		c-0.726-1.306,0.87-2.321,2.901-1.159c2.031,1.159,2.321-1.162,1.596-1.741c-0.726-0.582,1.016-2.758-1.887-3.338
		s-0.725-6.385-3.047-5.369c-2.321,1.016-1.887-3.336-3.917-2.031c-2.031,1.307-0.436-0.29-3.628-2.756
		c-3.192-2.467-5.078-2.467-6.094-0.871S23.138,55.484,22.848,55.629z"/>
	<path fill="#3AC93A" d="M45.403,69.976c0,0,3.841,0.124,3.198,1.722c-0.643,1.597-1.534,0.953-2.07,1.407
		c-0.535,0.453-0.632,1.351-0.256,1.954c0.375,0.604,2.308,1.08,1.868,1.949c-0.438,0.872,0.999,2.133,0.173,2.646
		c-0.824,0.514,1.771,1.533-5.373,2.146c-7.144,0.613-14.896-6.057-15.218-6.572c-0.322-0.52-5.396-2.628-5.396-2.628
		s-2.491-2.161-1.892-2.774c0.602-0.613,3.668-1.205,4.999-1.435c1.33-0.229,1.565-1.691-0.129-2.313
		c-1.696-0.62,0.083-1.967,0.825-1.83c0.74,0.14,1.866-1.999,3.412-0.565c1.545,1.433,5.458-2.799,5.492-0.903
		c0.032,1.895,3.41-0.566,3.101,1.303c-0.309,1.869,0.398,0.112,3.584,0.764c3.187,0.65,3.885,1.771,2.963,3.185
		C43.761,69.442,45.414,69.73,45.403,69.976z"/>
	<path fill="#EF2E07" d="M23.938,57.363c0,0,3.715,2.509,2.583,4.585s-2.661,2.938-2.661,2.938l-2.696-1.213
		C21.163,63.673,20.921,57.625,23.938,57.363z"/>
	<path fill="#A57D42" d="M20.602,67.213c0,0-11-1.666-11.333,1.168c-0.333,2.832-1,4-0.5,4.666s8.333,3.667,9.167,3.5
		s2.833-1.834,3.167-3.334S21.769,68.213,20.602,67.213z"/>
	<path fill="#A5591B" d="M32.269,63.38c0,0-11-1.666-11.333,1.168c-0.333,2.833-1,4.001-0.5,4.667s8.333,3.666,9.167,3.5
		c0.833-0.168,2.833-1.834,3.167-3.334S33.436,64.38,32.269,63.38z"/>
	<ellipse fill="#FFE54D" cx="8.713" cy="77.292" rx="3.885" ry="3.133"/>
	<ellipse fill="#7D7B2B" cx="8.839" cy="74.284" rx="2.757" ry="2.632"/>
	<ellipse fill="#FFE665" cx="20.355" cy="86.096" rx="3.886" ry="3.133"/>
	<ellipse fill="#FFC960" cx="12.085" cy="84.592" rx="3.885" ry="3.133"/>
	<ellipse fill="#8C756A" cx="26.871" cy="83.59" rx="3.885" ry="3.133"/>
	<ellipse fill="#FFFA57" cx="8.701" cy="80.825" rx="2.757" ry="2.632"/>
	<ellipse fill="#FFFA57" cx="16.721" cy="82.831" rx="2.757" ry="2.631"/>
	<ellipse fill="#FFFA57" cx="24.49" cy="87.843" rx="2.757" ry="2.632"/>
	<ellipse fill="#FFFA57" cx="13.212" cy="79.823" rx="2.757" ry="2.632"/>
	<path fill="#FFFA57" d="M25.001,78.043c0,1.455-1.234,2.633-2.757,2.633c-1.523,0-2.758-1.178-2.758-2.633
		c0-1.453,1.234-2.631,2.758-2.631c0.05,0,0.101,0.002,0.149,0.005C23.848,75.491,25.001,76.639,25.001,78.043z"/>
	<ellipse fill="#FFFA57" cx="33.764" cy="86.339" rx="2.757" ry="2.632"/>
	<ellipse fill="#FFFA57" cx="16.972" cy="89.847" rx="2.757" ry="2.632"/>
	<ellipse fill="#FFFA57" cx="21.483" cy="90.6" rx="2.758" ry="2.631"/>
	<ellipse fill="#FFFA57" cx="14.716" cy="87.341" rx="2.757" ry="2.632"/>
	<ellipse fill="#FFFA57" cx="5.443" cy="74.058" rx="2.758" ry="2.632"/>
	<ellipse fill="#F4F0C3" cx="21.119" cy="82.179" rx="2.882" ry="2.005"/>
	<ellipse fill="#F4F0C3" cx="11.396" cy="79.375" rx="2.882" ry="2.006"/>
	<circle fill="#F4F0C3" cx="15.59" cy="87.087" r="2.381"/>
	<ellipse fill="#F4F0C3" cx="32.883" cy="88.715" rx="2.882" ry="2.005"/>
	<path fill="#F44E21" d="M15.043,75.528c0,0-2.005,4.01,0,5.263s3.76,1.253,3.76,1.253l1.754-2.381
		C20.557,79.663,17.8,74.275,15.043,75.528z"/>
	<path fill="#FFFA57" d="M18.081,73.985"/>
	<path fill="#40A81A" d="M33.574,79.729c0,0-5.54-4.562-11.229-2.55c-5.689,2.009-2.335,3.146-2.335,3.146l9.01,0.879L33.574,79.729
		z"/>
	<path fill="#F46E3F" d="M29.418,77.153c0,0-2.005,4.01,0,5.263s3.76,1.253,3.76,1.253l1.754-2.381
		C34.932,81.288,32.175,75.9,29.418,77.153z"/>
	<path fill="#F44E21" d="M40.465,85.65c0,0-2.703-3.577-4.716-2.337c-2.014,1.24-2.792,2.812-2.792,2.812l1.354,2.629
		C34.312,88.754,40.364,88.676,40.465,85.65z"/>
	<path fill="#40A81A" d="M8.588,68.143c0,0-1.284,7.06,3.243,11.049c4.526,3.989,3.887,0.506,3.887,0.506l-3.621-8.297L8.588,68.143
		z"/>
	<path fill="#40A81A" d="M39.164,79.862c0,0-11.779,4.011-11.278,7.269c0.501,3.259,1.253,1.504,2.005,2.005
		c0.752,0.502,9.774-6.266,9.774-6.266L39.164,79.862z"/>
	<ellipse fill="#FFFA57" cx="6.333" cy="70.901" rx="2.381" ry="2.632"/>
	
		<ellipse transform="matrix(-0.3859 -0.9225 0.9225 -0.3859 -43.6837 150.1293)" fill="#FFFA57" cx="28.125" cy="89.604" rx="3.133" ry="3.885"/>
	<ellipse fill="#F4F0C3" cx="7.711" cy="72.405" rx="2.882" ry="2.005"/>
	
		<ellipse transform="matrix(-0.3661 -0.9306 0.9306 -0.3661 -50.4324 145.5746)" fill="#F4F0C3" cx="24.366" cy="89.965" rx="2.003" ry="2.882"/>
	
		<ellipse transform="matrix(-0.761 -0.6488 0.6488 -0.761 16.8045 143.047)" fill="#FFFA57" cx="34.753" cy="68.428" rx="3.133" ry="3.885"/>
	
		<ellipse transform="matrix(0.485 -0.8745 0.8745 0.485 -43.5373 47.9241)" fill="#FFFA57" cx="18.919" cy="60.925" rx="2.299" ry="2.885"/>
	<path fill="#B26C38" d="M20.101,61.047c0,0-11-1.666-11.333,1.168c-0.333,2.832-1,4-0.5,4.667c0.5,0.665,8.333,3.667,9.167,3.499
		c0.833-0.166,2.833-1.834,3.167-3.333C20.935,65.547,21.268,62.047,20.101,61.047z"/>
	<path fill="#D88248" d="M23.104,72.503c0,0,13.117-4.657,14.147-1.984c1.031,2.672,2.104,3.627,1.637,4.415
		c-0.466,0.788-9.409,5.877-10.467,5.941c-1.06,0.067-3.875-1.008-4.613-2.379C23.071,77.125,21.894,73.802,23.104,72.503z"/>
	<path fill="#B28040" d="M19.437,61.789c0,0-8.713-1.355-8.977,0.95c-0.264,2.304-0.792,3.254-0.396,3.796
		c0.396,0.541,6.601,2.983,7.262,2.847c0.66-0.135,2.244-1.492,2.509-2.712C20.097,65.449,20.361,62.602,19.437,61.789z"/>
	<path fill="#EF2E07" d="M22.456,68.53c0,0-3.715,2.509-2.583,4.585s2.661,2.938,2.661,2.938l2.696-1.214
		C25.23,74.839,25.473,68.792,22.456,68.53z"/>
	<path fill="#EF2E07" d="M12.784,67.445c0,0-2.945-3.38-4.867-2.002c-1.922,1.377-2.589,3-2.589,3l0.131,0.217l1.211,1.996
		l3.036,0.268C9.706,70.922,12.894,70.471,12.784,67.445z"/>
	<path fill="#C96236" d="M25.586,72.917c0,0,10.382-3.686,11.197-1.571c0.816,2.115,1.666,2.87,1.295,3.494
		c-0.368,0.624-7.447,4.651-8.283,4.703c-0.839,0.053-3.067-0.798-3.651-1.883C25.559,76.574,24.628,73.944,25.586,72.917z"/>
	<path fill="#A5591B" d="M44.435,74.879c0,0-11-1.666-11.333,1.168c-0.333,2.832-1,4-0.5,4.666s8.333,3.668,9.167,3.5
		c0.833-0.166,2.833-1.834,3.167-3.334S45.602,75.879,44.435,74.879z"/>
	<ellipse fill="#F4F0C3" cx="27.09" cy="80.92" rx="2.381" ry="1.38"/>
	<ellipse fill="#F4F0C3" cx="19.59" cy="75.754" rx="2.381" ry="1.379"/>
</g>
</svg>
