<?xml version="1.0" encoding="utf-8"?>
<!-- Generator: Adobe Illustrator 16.0.4, SVG Export Plug-In . SVG Version: 6.00 Build 0)  -->
<!DOCTYPE svg PUBLIC "-//W3C//DTD SVG 1.1//EN" "http://www.w3.org/Graphics/SVG/1.1/DTD/svg11.dtd">
<svg version="1.1" xmlns="http://www.w3.org/2000/svg" xmlns:xlink="http://www.w3.org/1999/xlink" x="0px" y="0px"
	 width="227.548px" height="394.085px" viewBox="0 0 227.548 394.085" enable-background="new 0 0 227.548 394.085"
	 xml:space="preserve">
<g id="Layer_4">
</g>
<g id="Layer_2">
</g>
<g id="Layer_3">
	<g>
		<path fill="#FEDFC4" d="M8.343,32.367C9.414,26.548,13.536,1.249,29.551,11c1.059,0.645,3.309,0.629,3.934-1.33
			c2.63-8.243,10.761-7.133,13.604-5.684c1.79,0.912,1.739,0.649,4.771,1.312c0,0,3.312,1.247,5.812-2.128s7.312-2.5,9.188-1.5
			c0,0,3.168,2.392,5.334,2.05s3.167-4.175,9-3.675c0,0,7.455,0.669,10.759,5c4.923,6.455,16.683,23.008,18.407,26.75
			c4.388,6.61,9.567,38.828,8.57,49.452c-0.996,10.625,3.646,11.998,4.021,13.222c0.261,0.848,2.011,3.199,2.079,6.421
			c0.03,1.429-0.51,7.966-0.162,9.368c0.836,3.361,31.724,95.438,52.651,127.254c26.028,39.573,50.005,119.112,50.028,119.573
			c0.049,0.93-86,37-86,37s-28-80-38.288-129.917c-4.996-24.242-42.121-141.518-44.642-147.169
			c-4.934-11.059-6.983-14.039-12.009-15.954c-7.7-2.933-29.664-22.717-32-25.75C12.679,72.787-2.51,50.31,0.359,45.421
			C2.296,42.122,6.826,40.604,8.343,32.367z"/>
		<path opacity="0.4" fill="#FFFFFF" enable-background="new    " d="M117.48,96.321c-0.706,1.605-0.832,7.006,1.827,7.767
			c2.658,0.761,4.3-3.14,3.51-4.795C122.052,97.687,119.447,91.844,117.48,96.321z"/>
		<path opacity="0.7" fill="#F7C6C6" enable-background="new    " d="M16.416,13.092c0,0,0.365,6.951,4.171,9.955
			c3.808,3.003,7.104,3.584,7.104,3.584s1.493-0.831,2.019-1.801c0.525-0.97-4.062-7.888-4.466-8.244s-4.996-3.695-6.165-4.01
			C17.909,12.259,16.416,13.092,16.416,13.092z"/>
		<path opacity="0.7" fill="#F7C6C6" enable-background="new    " d="M41.308,6.381c0,0-1.342,5.112,0.618,8.136
			c1.959,3.025,4.12,4.183,4.12,4.183s1.23-0.268,1.818-0.852c0.588-0.583-1.019-6.616-1.216-6.964
			c-0.199-0.348-2.628-3.791-3.37-4.28C42.537,6.113,41.308,6.381,41.308,6.381z"/>
		<path opacity="0.5" fill="#F7C6C6" enable-background="new    " d="M62.479,4.288c0,0,1.007,5.62,3.21,7.889
			c2.202,2.271,3.869,2.598,3.869,2.598s0.624-0.738,0.762-1.546c0.139-0.808-2.908-6.218-3.146-6.487
			c-0.237-0.273-2.862-2.781-3.465-2.985C63.104,3.552,62.479,4.288,62.479,4.288z"/>
	</g>
	<path opacity="0.5" fill="#F7C6C6" enable-background="new    " d="M81.096,4.417c0,0-1.37,3.197,0.851,3.554
		c2.221,0.357,4.625-0.293,4.625-0.293s1.348-0.814,1.982-1.421c0.635-0.607-1.256-2.604-1.483-2.658
		c-0.226-0.058-2.975-0.352-3.798-0.173C82.444,3.604,81.096,4.417,81.096,4.417z"/>
	<g opacity="0.3">
		<g>
			<path fill="#FFFFFF" d="M39.122,24.881C50.604,35.387,62.35,49.395,65.981,64.798c0.313,1.328,4.498,2.773,4.346,2.125
				C66.499,50.691,54.01,36.13,41.937,25.083C41.03,24.255,36.769,22.728,39.122,24.881L39.122,24.881z"/>
		</g>
	</g>
	<g opacity="0.3">
		<path fill="#FFFFFF" d="M60.722,19.567c0,0,0.488,0.627,1.293,1.761c0.799,1.137,1.975,2.741,3.278,4.736
			c0.653,0.997,1.391,2.058,2.116,3.215c0.732,1.152,1.514,2.363,2.288,3.636c1.582,2.526,3.12,5.311,4.737,8.049
			c0.771,1.391,1.476,2.819,2.205,4.204c0.717,1.392,1.423,2.761,2.105,4.087c1.253,2.71,2.35,5.271,3.324,7.446
			c0.826,2.243,1.449,4.134,1.914,5.443c0.443,1.316,0.697,2.068,0.697,2.068s-1.299-2.911-3.128-7.287
			c-1.047-2.135-2.31-4.604-3.583-7.283c-0.699-1.31-1.422-2.664-2.155-4.039c-0.745-1.369-1.47-2.778-2.253-4.154
			c-1.572-2.75-3.065-5.548-4.607-8.089c-0.77-1.271-1.479-2.52-2.163-3.699c-0.673-1.186-1.362-2.274-1.971-3.296
			C62.361,22.286,60.722,19.567,60.722,19.567z"/>
	</g>
	<g opacity="0.2">
		<path fill="#7A7775" d="M9.098,28.439c0,0,0.22,0.332,0.576,0.928c0.345,0.602,0.869,1.447,1.419,2.501
			c0.549,1.054,1.208,2.278,1.839,3.626c0.641,1.343,1.269,2.802,1.863,4.277c0.574,1.483,1.118,2.981,1.528,4.422
			c0.422,1.437,0.695,2.817,0.844,4.016c0.076,0.599,0.103,1.156,0.063,1.652c-0.021,0.493-0.099,0.926-0.216,1.264
			c-0.04,0.174-0.125,0.314-0.195,0.434c-0.062,0.125-0.129,0.219-0.204,0.282c-0.131,0.133-0.201,0.204-0.201,0.204
			s0.055-0.083,0.158-0.237c0.059-0.07,0.104-0.172,0.14-0.301c0.041-0.125,0.1-0.261,0.114-0.432
			c0.063-0.329,0.079-0.741,0.032-1.21c-0.032-0.468-0.134-0.995-0.247-1.566c-0.229-1.145-0.658-2.449-1.128-3.839
			c-0.236-0.696-0.509-1.406-0.771-2.133c-0.27-0.725-0.554-1.458-0.848-2.188c-0.568-1.467-1.177-2.92-1.737-4.289
			c-0.564-1.369-1.091-2.646-1.542-3.741c-0.467-1.089-0.814-2.018-1.086-2.655C9.245,28.808,9.098,28.439,9.098,28.439z"/>
	</g>
</g>
</svg>
