<?xml version="1.0" encoding="utf-8"?>
<!-- Generator: Adobe Illustrator 16.0.4, SVG Export Plug-In . SVG Version: 6.00 Build 0)  -->
<!DOCTYPE svg PUBLIC "-//W3C//DTD SVG 1.1//EN" "http://www.w3.org/Graphics/SVG/1.1/DTD/svg11.dtd">
<svg version="1.1" id="Layer_3" xmlns="http://www.w3.org/2000/svg" xmlns:xlink="http://www.w3.org/1999/xlink" x="0px" y="0px"
	 width="271.19px" height="479.539px" viewBox="0 0 271.19 479.539" enable-background="new 0 0 271.19 479.539"
	 xml:space="preserve">
<g>
	<path fill="#FEDFC4" d="M61.555,140.163c4.549-5.692-12.127-32.012-12.127-32.012S27.362,69.26,22.154,61.262
		c-5.208-7.998-6.623-18.371-6.623-18.371s-0.318-14.349,11.768-8.018c0,0,6.945,7.906,13.135,18.029
		c6.19,10.123,29.627,41.977,32.758,43.553c0,0,3.936,4.724,4.707-1.553c1.045-8.511,0.828-13.848-7.828-37.771
		c-3.332-9.208-7.657-25.622-8.792-31.255c-1.815-9.001-3.961-16.23-3.961-16.23s-0.992-11.295,7.278-9.441
		c7.866,1.764,12.268,19.199,15.483,28.416c3.836,10.999,8.863,21.278,9.315,23.454c0.832,3.999,11.631,37.433,15.472,36.189
		c0,0,0.908,0.714,0.977-0.051c0.389-4.341-4.943-30.213-6.689-33.852c-1.745-3.64-3.656-19.304-4.749-22.356
		c-1.092-3.052-3.666-19.49-3.666-19.49s-0.21-9.939,6.04-9.334c6.25,0.605,9.122,7.917,9.122,7.917s4.284,17.932,9.633,36.127
		c5.473,18.616,10.826,40.02,15.084,40.269c0,0,1.63,0.64,2.475,0.16c7.776-4.412,5.9-38.042,6.046-42.397
		c0.283-8.431,2.71-12.725,2.71-12.725s5.6-5.891,9.042,0.458c3.443,6.349,5.195,69.378,9.584,75.988
		c4.388,6.61,3.093,47.1,2.096,57.724c-0.997,10.625,3.646,11.998,4.021,13.222c0.261,0.848,2.011,3.199,2.079,6.421
		c0.03,1.429-0.51,7.966-0.162,9.368c0.836,3.361,31.724,95.437,52.651,127.254c26.029,39.573,50.005,119.112,50.029,119.573
		c0.049,0.93-86,37-86,37s-28-80-38.288-129.917c-4.996-24.242-42.121-141.518-44.642-147.169
		c-4.934-11.059-14.303-9.695-19.328-11.61c-7.7-2.933-36.662-26.698-38.998-29.731c-1.931-2.508-17.591-11.701-20.88-16.317
		s-20.723-5.007-20.723-5.007s-4.592-4.547-0.89-8.659c3.703-4.112,15.493-11.696,30.64-5.09
		C32.083,126.039,58.287,144.252,61.555,140.163z"/>
	<path opacity="0.4" fill="#FFFFFF" d="M25.928,36.396c0,0,3.769,5.461,4.317,7.609c0.548,2.148-6.985,5.155-6.985,5.155
		s-5.131-5.594-5.787-7.967C16.827,38.851,18.297,32.009,25.928,36.396z"/>
	<path opacity="0.4" fill="#FFFFFF" d="M101.613,7.612c0,0,1.572,5.641,1.423,7.761c-0.15,2.12-6.977,2.542-6.977,2.542
		s-3.118-6.129-3-8.487C93.174,7.1,95.555,1.087,101.613,7.612z"/>
	<path opacity="0.4" fill="#FFFFFF" d="M68.483,3.981c0,0,2.084,5.876,2.017,8.021c-0.069,2.143-7.959,3.174-7.959,3.174
		s-3.794-5.976-3.777-8.363C58.782,4.456,61.038-2.948,68.483,3.981z"/>
	<path opacity="0.4" fill="#FFFFFF" d="M142.768,35.032c0,0-0.203,5.399,0.332,7.16c0.534,1.76,6.743,1.001,6.743,1.001
		s1.044-6.025,0.486-7.99C149.777,33.264,145.958,28.905,142.768,35.032z"/>
	<path opacity="0.4" fill="#FFFFFF" d="M18.326,141.778c-1.687-1.725-15.358-2.313-15.358-2.313s-0.829-6.124,4.644-6.919
		c5.472-0.794,11.258,0.933,11.258,0.933s0.678,1.879,0.564,4.541C19.337,140.311,18.326,141.778,18.326,141.778z"/>
	<path opacity="0.4" fill="#FFFFFF" d="M161.121,181.776c-0.706,1.605-0.832,7.006,1.827,7.767c2.659,0.761,4.3-3.14,3.51-4.795
		C165.693,183.142,163.088,177.299,161.121,181.776z"/>
	<g opacity="0.2">
		<path fill="#7F7F7F" d="M37.372,76.691c0,0-0.001-0.868,0.382-2.113c0.112-0.303,0.207-0.647,0.374-0.982
			c0.151-0.343,0.32-0.704,0.547-1.05c0.2-0.361,0.472-0.698,0.741-1.043c0.306-0.315,0.602-0.657,0.96-0.932
			c0.363-0.27,0.726-0.54,1.139-0.721c0.386-0.232,0.814-0.343,1.223-0.453c0.4-0.148,0.816-0.136,1.196-0.173
			c0.381-0.056,0.739,0.004,1.066,0.045c0.325,0.05,0.627,0.052,0.876,0.153c0.25,0.083,0.469,0.155,0.649,0.215
			c0.35,0.13,0.55,0.204,0.55,0.204s-0.214-0.003-0.589-0.009c-0.183-0.008-0.404-0.019-0.659-0.03
			c-0.25-0.036-0.537,0.036-0.841,0.042c-0.305,0.022-0.633,0.028-0.967,0.122c-0.333,0.083-0.692,0.12-1.03,0.275
			c-0.172,0.064-0.346,0.129-0.522,0.195c-0.174,0.069-0.331,0.185-0.502,0.268c-0.35,0.16-0.654,0.408-0.963,0.646
			c-0.317,0.227-0.585,0.524-0.864,0.792c-0.241,0.309-0.529,0.572-0.733,0.893c-0.227,0.302-0.434,0.606-0.618,0.906
			c-0.193,0.294-0.342,0.593-0.505,0.858C37.701,75.896,37.372,76.691,37.372,76.691z"/>
	</g>
	<g opacity="0.2">
		<path fill="#7F7F7F" d="M39.278,76.926c0,0,0.12-0.112,0.337-0.293c0.212-0.186,0.547-0.416,0.901-0.732
			c0.361-0.309,0.787-0.647,1.252-0.988c0.117-0.084,0.235-0.17,0.355-0.258c0.065-0.062,0.229-0.204,0.307-0.288
			c0.167-0.173,0.367-0.418,0.551-0.661c0.391-0.476,0.789-1.013,1.306-1.423c0.499-0.422,1.153-0.685,1.699-0.655
			c0.269-0.004,0.51,0.062,0.705,0.127c0.193,0.082,0.362,0.136,0.48,0.225c0.244,0.16,0.371,0.256,0.371,0.256
			s-0.159-0.025-0.437-0.068c-0.132-0.037-0.304-0.016-0.482-0.037c-0.18,0.003-0.382,0.016-0.582,0.068
			c-0.202,0.048-0.401,0.136-0.596,0.257c-0.195,0.121-0.38,0.286-0.566,0.478c-0.366,0.386-0.721,0.877-1.115,1.393
			c-0.209,0.252-0.414,0.497-0.692,0.76c-0.142,0.136-0.221,0.189-0.396,0.313c-0.137,0.078-0.272,0.155-0.405,0.231
			c-0.533,0.301-1.039,0.562-1.477,0.767c-0.43,0.224-0.82,0.32-1.088,0.409C39.437,76.889,39.278,76.926,39.278,76.926z"/>
	</g>
	<g opacity="0.2">
		<path fill="#7F7F7F" d="M39.456,79.691c0,0,0.511-0.576,1.411-1.283c0.445-0.359,0.995-0.741,1.61-1.115
			c0.32-0.169,0.638-0.369,0.989-0.527c0.374-0.134,0.706-0.323,1.127-0.413l0.628-0.119l0.521-0.073
			c0.201-0.016,0.325-0.073,0.471-0.108c0.144-0.033,0.289-0.073,0.427-0.151c0.29-0.114,0.536-0.291,0.784-0.45
			c0.209-0.205,0.448-0.368,0.614-0.581c0.368-0.389,0.629-0.781,0.811-1.053c0.187-0.276,0.293-0.435,0.293-0.435
			s-0.034,0.187-0.111,0.516c-0.034,0.167-0.095,0.362-0.186,0.582c-0.075,0.227-0.186,0.473-0.343,0.728
			c-0.129,0.271-0.352,0.519-0.573,0.792c-0.26,0.239-0.533,0.509-0.891,0.686c-0.164,0.11-0.355,0.189-0.561,0.258
			c-0.2,0.074-0.418,0.156-0.589,0.169l-0.582,0.098l-0.473,0.11c-0.318,0.05-0.659,0.225-0.984,0.327
			c-0.329,0.143-0.651,0.284-0.964,0.419c-0.628,0.301-1.214,0.582-1.716,0.822C40.163,79.386,39.456,79.691,39.456,79.691z"/>
	</g>
	<g opacity="0.2">
		<path fill="#7F7F7F" d="M72.394,49.653c0,0,0.469-0.658,1.427-1.39c0.476-0.368,1.07-0.759,1.772-1.069
			c0.353-0.147,0.72-0.31,1.121-0.402c0.392-0.112,0.811-0.177,1.232-0.211c0.423-0.032,0.851,0.01,1.268,0.063
			c0.207,0.045,0.411,0.097,0.609,0.152c0.178,0.057,0.354,0.112,0.528,0.167c0.349,0.104,0.688,0.244,0.991,0.319
			c0.31,0.09,0.601,0.181,0.871,0.227c0.274,0.064,0.512,0.076,0.724,0.061c0.211-0.016,0.395-0.09,0.563-0.146
			c0.331-0.123,0.542-0.124,0.536-0.135c0,0-0.177,0.093-0.44,0.31c-0.134,0.098-0.306,0.254-0.562,0.342
			c-0.245,0.092-0.557,0.153-0.861,0.141c-0.627,0.021-1.347-0.11-2.05-0.269c-0.18-0.04-0.364-0.08-0.549-0.121
			c-0.169-0.026-0.337-0.057-0.506-0.095c-0.347-0.031-0.699-0.057-1.057-0.02c-0.355,0.018-0.717,0.061-1.066,0.15
			c-0.351,0.075-0.697,0.172-1.028,0.282c-0.665,0.218-1.272,0.493-1.793,0.738C73.084,49.25,72.394,49.653,72.394,49.653z"/>
	</g>
	<g opacity="0.2">
		<path fill="#7F7F7F" d="M72.761,51.887c0,0,0.035-0.104,0.14-0.266c0.099-0.174,0.277-0.378,0.51-0.619
			c0.25-0.203,0.543-0.478,0.916-0.648c0.184-0.09,0.371-0.198,0.571-0.282c0.206-0.063,0.415-0.127,0.623-0.191
			c0.422-0.125,0.854-0.173,1.263-0.179c0.405-0.032,0.782-0.008,1.102,0.073c0.64,0.119,1.04,0.287,1.04,0.287
			s-0.425,0.168-1.025,0.287c-0.15,0.033-0.312,0.061-0.481,0.089c-0.167,0.048-0.342,0.102-0.523,0.138s-0.366,0.091-0.557,0.116
			c-0.191,0.029-0.372,0.106-0.56,0.156c-0.385,0.074-0.75,0.198-1.098,0.311c-0.176,0.053-0.349,0.098-0.502,0.166
			c-0.156,0.063-0.312,0.111-0.458,0.159c-0.283,0.117-0.519,0.214-0.685,0.283C72.863,51.835,72.761,51.887,72.761,51.887z"/>
	</g>
	<g opacity="0.2">
		<path fill="#7F7F7F" d="M113.554,46.693c0,0-0.304,0.813-1.101,1.844c-0.211,0.245-0.42,0.533-0.695,0.789
			c-0.262,0.268-0.546,0.546-0.881,0.791c-0.314,0.268-0.688,0.488-1.061,0.717c-0.396,0.187-0.794,0.403-1.226,0.535
			c-0.435,0.125-0.87,0.25-1.32,0.275c-0.442,0.082-0.883,0.035-1.304-0.005c-0.427-0.002-0.812-0.16-1.18-0.258
			c-0.376-0.082-0.69-0.264-0.982-0.417c-0.287-0.162-0.568-0.269-0.767-0.452c-0.206-0.166-0.384-0.31-0.532-0.429
			c-0.282-0.245-0.443-0.384-0.443-0.384s0.199,0.078,0.548,0.215c0.168,0.072,0.372,0.16,0.606,0.26
			c0.221,0.122,0.516,0.155,0.802,0.257c0.293,0.085,0.603,0.196,0.948,0.225c0.341,0.04,0.69,0.131,1.061,0.104
			c0.183,0,0.369,0,0.558,0c0.188-0.003,0.375-0.057,0.564-0.074c0.384-0.027,0.756-0.152,1.129-0.267
			c0.377-0.101,0.732-0.285,1.088-0.438c0.334-0.204,0.696-0.35,1-0.578c0.318-0.204,0.62-0.415,0.897-0.631
			c0.284-0.207,0.528-0.436,0.774-0.626C112.966,47.322,113.554,46.693,113.554,46.693z"/>
	</g>
	<g opacity="0.2">
		<path fill="#7F7F7F" d="M111.853,45.803c0,0-0.151,0.062-0.419,0.156c-0.264,0.099-0.659,0.197-1.101,0.369
			c-0.446,0.163-0.964,0.329-1.52,0.485c-0.139,0.039-0.28,0.077-0.423,0.117c-0.084,0.035-0.286,0.11-0.389,0.161
			c-0.217,0.104-0.491,0.262-0.748,0.426c-0.533,0.308-1.094,0.67-1.723,0.874c-0.615,0.22-1.319,0.236-1.82,0.016
			c-0.253-0.09-0.456-0.237-0.616-0.366c-0.151-0.145-0.291-0.254-0.37-0.38c-0.173-0.235-0.257-0.37-0.257-0.37
			s0.14,0.079,0.385,0.218c0.11,0.081,0.278,0.122,0.438,0.204c0.17,0.06,0.364,0.12,0.569,0.141
			c0.206,0.025,0.424,0.013,0.649-0.032c0.226-0.045,0.457-0.134,0.698-0.249c0.479-0.233,0.983-0.568,1.533-0.913
			c0.285-0.163,0.562-0.32,0.915-0.468c0.18-0.077,0.273-0.099,0.48-0.154c0.155-0.025,0.309-0.05,0.46-0.075
			c0.604-0.095,1.17-0.162,1.652-0.199c0.481-0.059,0.88-0.011,1.163,0C111.69,45.783,111.853,45.803,111.853,45.803z"/>
	</g>
	<g opacity="0.2">
		<path fill="#7F7F7F" d="M111.658,43.205c0,0-0.681,0.36-1.771,0.706c-0.543,0.18-1.191,0.344-1.899,0.478
			c-0.359,0.046-0.727,0.121-1.111,0.146c-0.397-0.006-0.774,0.054-1.201-0.009l-0.63-0.109l-0.514-0.115
			c-0.193-0.055-0.33-0.046-0.479-0.064c-0.146-0.02-0.296-0.033-0.453-0.009c-0.312,0.005-0.604,0.084-0.892,0.146
			c-0.269,0.118-0.549,0.187-0.779,0.328c-0.481,0.235-0.863,0.511-1.129,0.701c-0.272,0.194-0.427,0.304-0.427,0.304
			s0.097-0.163,0.286-0.444c0.09-0.144,0.216-0.306,0.378-0.479c0.149-0.187,0.34-0.377,0.577-0.561
			c0.216-0.209,0.512-0.362,0.815-0.541c0.328-0.132,0.678-0.289,1.075-0.329c0.191-0.045,0.399-0.052,0.616-0.044
			c0.212,0,0.446,0,0.611,0.048l0.579,0.112l0.482,0.063c0.315,0.065,0.696,0.021,1.036,0.039c0.357-0.019,0.709-0.037,1.05-0.054
			c0.693-0.061,1.34-0.118,1.895-0.167C110.889,43.241,111.658,43.205,111.658,43.205z"/>
	</g>
	<path opacity="0.2" fill="none" stroke="#7F7F7F" stroke-width="0.5" stroke-miterlimit="10" d="M143.067,56.267
		c0,0,1.857,0.421,3.658,0.493c1.801,0.071,4.372-1.77,5.717,1.06"/>
	<g opacity="0.2">
		<path fill="#7F7F7F" d="M152.052,58.831c0,0-0.136-0.018-0.374-0.05c-0.233-0.038-0.572-0.072-0.968-0.115
			c-0.396-0.04-0.857-0.09-1.339-0.09c-0.243-0.021-0.486,0.01-0.731,0.025c-0.253-0.005-0.479,0.075-0.712,0.125
			c-0.208,0.025-0.503,0.163-0.7,0.245c-0.223,0.109-0.453,0.209-0.668,0.329c-0.435,0.23-0.851,0.472-1.259,0.62
			c-0.399,0.166-0.81,0.164-1.047,0.074c-0.243-0.085-0.326-0.213-0.333-0.199c0.002-0.011,0.135,0.056,0.36,0.055
			c0.227,0.015,0.513-0.102,0.83-0.316c0.318-0.211,0.678-0.51,1.109-0.8c0.216-0.143,0.445-0.293,0.699-0.417
			c0.288-0.128,0.481-0.24,0.805-0.311c0.293-0.059,0.589-0.139,0.872-0.125c0.285-0.015,0.564-0.003,0.824,0.039
			c0.527,0.057,0.997,0.192,1.388,0.329C151.588,58.528,152.052,58.831,152.052,58.831z"/>
	</g>
	<g opacity="0.2">
		<path fill="#7F7F7F" d="M152.327,59.637c0,0-0.043,0.101-0.16,0.255c-0.111,0.167-0.305,0.356-0.555,0.578
			c-0.265,0.183-0.578,0.436-0.962,0.577c-0.19,0.076-0.385,0.169-0.59,0.238c-0.21,0.047-0.423,0.095-0.636,0.144
			c-0.43,0.093-0.865,0.108-1.272,0.083c-0.407,0.001-0.781-0.051-1.093-0.156c-0.628-0.167-1.015-0.365-1.015-0.365
			s0.437-0.136,1.044-0.208c0.152-0.022,0.315-0.037,0.486-0.052c0.171-0.035,0.349-0.075,0.533-0.098s0.371-0.063,0.564-0.073
			c0.193-0.014,0.379-0.078,0.57-0.113c0.39-0.045,0.762-0.141,1.118-0.227c0.18-0.04,0.356-0.072,0.514-0.127
			c0.16-0.052,0.32-0.087,0.468-0.124c0.292-0.095,0.534-0.175,0.704-0.23C152.222,59.681,152.327,59.637,152.327,59.637z"/>
	</g>
	<g opacity="0.1">
		<path fill="#7F7F7F" d="M25.682,147.486c0,0-0.319-0.717-0.49-1.879c-0.089-0.58-0.134-1.272-0.047-2.029
			c0.048-0.376,0.113-0.775,0.273-1.168c0.144-0.396,0.383-0.785,0.702-1.128c0.174-0.154,0.376-0.293,0.575-0.413
			c0.194-0.08,0.494-0.19,0.602-0.227c0.398-0.129,0.621-0.195,0.853-0.376c0.483-0.325,0.743-0.869,0.881-1.381
			c0.134-0.515,0.16-0.988,0.166-1.319c0.006-0.332-0.008-0.527-0.008-0.527s0.096,0.17,0.205,0.497
			c0.104,0.326,0.233,0.812,0.206,1.431c-0.007,0.309-0.067,0.651-0.203,1.002c-0.145,0.342-0.356,0.712-0.69,0.98
			c-0.15,0.148-0.345,0.266-0.551,0.379c-0.216,0.134-0.357,0.152-0.544,0.228c-0.246,0.086-0.293,0.125-0.454,0.182
			c-0.117,0.082-0.231,0.166-0.34,0.26c-0.423,0.41-0.657,1.082-0.806,1.726c-0.143,0.653-0.208,1.301-0.249,1.861
			C25.694,146.705,25.682,147.486,25.682,147.486z"/>
	</g>
	<g opacity="0.2">
		<path fill="#7F7F7F" d="M27.838,145.078c0,0,0.101-0.093,0.278-0.254c0.179-0.154,0.422-0.392,0.71-0.668
			c0.285-0.278,0.62-0.599,0.929-0.969c0.173-0.173,0.305-0.379,0.45-0.577c0.167-0.19,0.25-0.415,0.362-0.626
			c0.115-0.176,0.198-0.491,0.262-0.693c0.06-0.241,0.131-0.482,0.177-0.724c0.103-0.481,0.185-0.956,0.333-1.363
			c0.128-0.413,0.395-0.726,0.616-0.85c0.221-0.131,0.373-0.113,0.366-0.128c0.007,0.008-0.13,0.067-0.273,0.24
			c-0.157,0.165-0.251,0.458-0.291,0.839c-0.042,0.379-0.044,0.848-0.099,1.365c-0.029,0.257-0.061,0.529-0.128,0.803
			c-0.087,0.304-0.125,0.523-0.278,0.817c-0.144,0.262-0.272,0.54-0.464,0.749c-0.172,0.228-0.359,0.435-0.559,0.606
			c-0.382,0.368-0.788,0.642-1.144,0.853C28.368,144.917,27.838,145.078,27.838,145.078z"/>
	</g>
	<g opacity="0.2">
		<path fill="#7F7F7F" d="M76.27,51.954c0,0,0.542-0.043,1.356-0.108c0.396-0.036,0.856-0.068,1.324-0.149
			c0.24-0.018,0.469-0.092,0.702-0.143c0.246-0.033,0.445-0.144,0.66-0.225c0.185-0.045,0.472-0.233,0.64-0.333
			c0.199-0.138,0.414-0.263,0.609-0.41c0.398-0.283,0.784-0.576,1.181-0.775c0.384-0.215,0.812-0.275,1.067-0.197
			c0.257,0.066,0.353,0.189,0.358,0.173c0,0.011-0.147-0.027-0.365,0.026c-0.22,0.044-0.464,0.2-0.731,0.468
			c-0.267,0.265-0.567,0.622-0.949,0.983c-0.192,0.177-0.394,0.368-0.631,0.532c-0.28,0.18-0.438,0.312-0.765,0.441
			c-0.292,0.104-0.583,0.229-0.869,0.258c-0.287,0.059-0.571,0.083-0.838,0.076c-0.539,0.015-1.027-0.063-1.436-0.157
			C76.764,52.234,76.27,51.954,76.27,51.954z"/>
	</g>
	<g opacity="0.2">
		<path fill="#7F7F7F" d="M74.883,56.215c0,0,0.704-0.289,1.753-0.659c0.522-0.185,1.131-0.4,1.784-0.631
			c0.647-0.238,1.344-0.463,2.021-0.735c0.689-0.241,1.355-0.528,1.983-0.79c0.623-0.272,1.19-0.549,1.673-0.806
			c0.245-0.124,0.445-0.268,0.643-0.377c0.198-0.11,0.355-0.223,0.484-0.321c0.271-0.188,0.427-0.296,0.427-0.296
			s-0.096,0.159-0.286,0.437c-0.094,0.14-0.21,0.312-0.378,0.473c-0.163,0.165-0.334,0.377-0.56,0.554
			c-0.434,0.38-0.984,0.773-1.609,1.124c-0.317,0.162-0.634,0.363-0.981,0.5c-0.342,0.151-0.69,0.307-1.045,0.437
			c-1.422,0.529-2.901,0.854-4.023,0.987C75.646,56.256,74.883,56.215,74.883,56.215z"/>
	</g>
	<path opacity="0.7" fill="#F7C6C6" d="M66.725,110.172c0,0,0.365,6.951,4.171,9.955c3.807,3.003,7.103,3.584,7.103,3.584
		s1.493-0.831,2.019-1.801c0.525-0.97-4.063-7.888-4.466-8.244c-0.403-0.356-4.996-3.695-6.165-4.01
		C68.218,109.339,66.725,110.172,66.725,110.172z"/>
	<path opacity="0.7" fill="#F7C6C6" d="M95.073,96.438c0,0-1.341,5.112,0.619,8.136c1.959,3.025,4.12,4.183,4.12,4.183
		s1.23-0.268,1.818-0.852c0.588-0.583-1.018-6.616-1.216-6.964c-0.199-0.348-2.628-3.791-3.37-4.28
		C96.303,96.17,95.073,96.438,95.073,96.438z"/>
	<path opacity="0.5" fill="#F7C6C6" d="M121.581,90.924c0,0-1.449,5.522-0.404,8.507c1.044,2.986,2.418,3.984,2.418,3.984
		s0.877-0.407,1.342-1.083c0.466-0.675-0.026-6.864-0.128-7.209c-0.101-0.347-1.428-3.726-1.889-4.165
		C122.457,90.518,121.581,90.924,121.581,90.924z"/>
</g>
</svg>
