<?xml version="1.0" encoding="utf-8"?>
<!-- Generator: Adobe Illustrator 16.0.4, SVG Export Plug-In . SVG Version: 6.00 Build 0)  -->
<!DOCTYPE svg PUBLIC "-//W3C//DTD SVG 1.1//EN" "http://www.w3.org/Graphics/SVG/1.1/DTD/svg11.dtd">
<svg version="1.1" id="Layer_1" xmlns="http://www.w3.org/2000/svg" xmlns:xlink="http://www.w3.org/1999/xlink" x="0px" y="0px"
	 width="287.241px" height="433.843px" viewBox="0 0 287.241 433.843" enable-background="new 0 0 287.241 433.843"
	 xml:space="preserve">
<path fill="#E8E8E8" d="M12.246,370.783c1.706,17.042-0.657,43.648,11.369,56.883c10.4,11.442,30.616,3.752,44.064,2.351
	c17.141-1.782,50.156,0.187,61.178-16.695c10.137-15.527,4.693-39.215,7.166-56.751c2.035-14.434,5.34-29.036,4.75-43.644
	c-0.586-14.473-5.03-26.682-5.073-41.568c-0.095-32.597,0.412-67.998,14.731-98.174c8.446-17.8,15.322-43.435,5.89-62.056
	c-2.236-4.415-6.731-7.258-8.467-12.022c-3.855-10.581-0.284-24.065-2.995-35.27c-2.563-10.59-7.5-20.433-11.921-30.201
	c-6.281-13.88-13.451-21.854-28.595-26.516c-29.22-8.997-61.599-4.542-66.718,31.025C32.423,74.3,23.059,109.749,14.345,145.68
	c-6.43,26.509-12.554,52.96-13.386,80.829c-0.369,12.358-1.293,25.062-0.834,37.388c0.379,10.139,5.429,17.927,7.454,27.445
	c2.125,9.989,0.201,20.719-0.044,30.87C7.138,338.667,10.616,354.512,12.246,370.783z"/>
<path fill="#F8ACA4" d="M93.036,97.288c-0.694,2.956-3.273,6.01-5.019,8.369c-2.94,3.977-6.208,5.211-8.602,7.979
	c-4.4,5.09-7.373,11.069-4.99,19.376c1.733,6.042,11.187,14.563,16.152,6.375c8.042-2.083,15.856,4.85,21.691,4.983
	c7.128,0.162,9.869-8.611,15.222-8.746c5.223-0.132,2.328,1.617,9.698-0.167c7.878-1.908,7.138-2.466,7.396-11.921
	c0.397-14.561-12.052-17.368-16.659-28.386c-5.455-13.043-12.941-16.625-26.705-10.915C101.222,84.235,95.887,85.146,93.036,97.288z
	"/>
<path fill="#F8ACA4" d="M82.982,21.744c0,0-16.957-4.031-6.492,28.377c10.463,32.408,21.112,10.994,21.112,10.994
	S102.051,32.875,82.982,21.744z"/>
<path fill="#F8ACA4" d="M110.093,26.303c0,0-13.725-4.492-6.61,24.898C110.598,80.59,120.3,62.11,120.3,62.11
	S125.229,37.227,110.093,26.303z"/>
<path fill="#F8ACA4" d="M135.646,46.71c0,0-9.636-6.684-10.207,18.923c-0.572,25.609,10.696,12.613,10.696,12.613
	S145.044,58.964,135.646,46.71z"/>
<path fill="#F8ACA4" d="M63.001,56.38c0,0-14.354-0.477-2.062,22.001c12.293,22.478,18.558,5.023,18.558,5.023
	S79.901,61.809,63.001,56.38z"/>
<path fill="#E8E8E8" d="M280.594,371.677c-0.852,17.408,2.431,44.397-8.05,58.324c-9.064,12.043-27.936,4.986-40.335,4.073
	c-15.804-1.161-46.016,2.1-56.838-14.663c-9.954-15.416-5.95-39.732-8.953-57.484c-2.472-14.611-6.117-29.349-6.187-44.236
	c-0.069-14.752,3.499-27.348,2.915-42.498c-1.278-33.18-3.227-69.19-17.63-99.357c-8.496-17.794-15.879-43.622-8.004-62.933
	c1.867-4.579,5.873-7.643,7.267-12.558c3.094-10.915-0.749-24.502,1.27-36.009c1.909-10.876,6.027-21.081,9.674-31.191
	c5.183-14.366,11.428-22.754,25.129-28.076c26.435-10.269,56.334-6.968,62.521,29.034c6.289,36.599,16.364,72.321,25.867,108.557
	c7.011,26.735,13.738,53.422,15.668,81.754c0.855,12.561,2.236,25.455,2.333,38.019c0.077,10.332-4.232,18.45-5.691,28.216
	c-1.531,10.249,0.685,21.095,1.336,31.416C283.935,338.796,281.408,355.056,280.594,371.677z"/>
<path fill="#F8ACA4" d="M195.002,96.406c0.762,2.982,3.256,5.992,4.956,8.327c2.866,3.935,5.916,5.067,8.228,7.793
	c4.25,5.013,7.229,10.984,5.39,19.53c-1.339,6.216-9.655,15.247-14.555,7.102c-7.465-1.813-14.346,5.541-19.695,5.899
	c-6.533,0.437-9.417-8.388-14.334-8.322c-4.797,0.066-2.069,1.735-8.906,0.2c-7.31-1.642-6.654-2.238-7.285-11.851
	c-0.975-14.803,10.331-18.135,14.097-29.524c4.459-13.482,11.178-17.411,24.047-12.126
	C186.944,83.433,191.877,84.157,195.002,96.406z"/>
<path fill="#F8ACA4" d="M201.065,19.139c0,0,15.39-4.749,7.146,28.632c-8.245,33.383-18.913,11.994-18.913,11.994
	S184.032,31.195,201.065,19.139z"/>
<path fill="#F8ACA4" d="M176.378,24.812c0,0,12.406-5.095,7.108,25.087c-5.299,30.183-14.976,11.744-14.976,11.744
	S162.946,36.506,176.378,24.812z"/>
<path fill="#F8ACA4" d="M153.784,46.554c0,0,8.562-7.169,10.159,18.87c1.597,26.042-9.286,13.245-9.286,13.245
	S145.673,59.384,153.784,46.554z"/>
<path fill="#F8ACA4" d="M220.848,53.629c0,0,13.154-1.032,2.814,22.313c-10.34,23.346-16.819,5.82-16.819,5.82
	S205.57,59.797,220.848,53.629z"/>
</svg>
