<?xml version="1.0" encoding="utf-8"?>
<!-- Generator: Adobe Illustrator 16.0.4, SVG Export Plug-In . SVG Version: 6.00 Build 0)  -->
<!DOCTYPE svg PUBLIC "-//W3C//DTD SVG 1.1//EN" "http://www.w3.org/Graphics/SVG/1.1/DTD/svg11.dtd">
<svg version="1.1" id="Layer_1" xmlns="http://www.w3.org/2000/svg" xmlns:xlink="http://www.w3.org/1999/xlink" x="0px" y="0px"
	 width="421.104px" height="467.764px" viewBox="0 0 421.104 467.764" enable-background="new 0 0 421.104 467.764"
	 xml:space="preserve">
<g>
	<path fill="#E8E8E8" d="M61.737,375.264c6.249,16.091,10.815,42.457,26.716,52.308c13.751,8.519,32.598-3.93,46.114-8.61
		c17.228-5.964,51.833-12.215,58.767-31.298c6.378-17.551-5.48-39.158-7.545-56.761c-1.699-14.488-2.132-29.456-6.588-43.463
		c-4.416-13.879-12.219-24.612-16.184-39.025c-8.682-31.562-17.48-65.991-10.642-98.771c4.033-19.335,4.382-45.875-10.259-61.586
		c-3.471-3.725-8.861-5.37-11.908-9.557c-6.766-9.299-6.629-23.249-12.379-33.436c-5.435-9.628-13.124-17.945-20.26-26.318
		C87.429,6.85,77.927,0.896,61.064,0.12C28.527-1.376-3.73,10.943,0.351,46.671c4.149,36.32,3.816,72.983,4.281,109.953
		c0.342,27.275,0.984,54.42,7.463,81.63c2.873,12.065,5.264,24.603,8.984,36.433c3.061,9.73,10.325,16.03,14.922,24.753
		c4.824,9.154,5.663,20.026,8.083,29.923C48.006,345.406,55.771,359.901,61.737,375.264z"/>
	<path fill="#F8ACA4" d="M73.133,90.286c0.062,3.036-1.797,6.633-2.978,9.35c-1.989,4.58-5.038,6.584-6.78,9.857
		c-3.203,6.02-4.697,12.548-0.05,20.008c3.381,5.427,15.384,11.347,18.355,2.185c7.754-4.006,17.647,0.781,23.708-0.532
		c7.402-1.604,7.921-10.783,13.413-12.236c5.358-1.418,2.83,0.992,9.969-2.559c7.632-3.795,6.72-4.154,4.497-13.378
		c-3.424-14.208-17.016-13.851-24.674-23.389c-9.066-11.291-17.738-12.911-30.445-3.977C78.148,75.615,72.88,77.816,73.133,90.286z"
		/>
	<path fill="#F8ACA4" d="M42.861,19.57c0,0-18.568,0.285,0.769,29.101c19.337,28.817,24.692,5.436,24.692,5.436
		S65.479,25.644,42.861,19.57z"/>
	<path fill="#F8ACA4" d="M72.052,17.289c0,0-15.353-0.961-0.269,25.759s20.236,6.415,20.236,6.415S90.556,24.132,72.052,17.289z"/>
	<path fill="#F8ACA4" d="M103.808,30.747c0,0-11.709-4.095-5.556,20.859c6.153,24.956,14.365,9.579,14.365,9.579
		S116.738,40.299,103.808,30.747z"/>
	<path fill="#F8ACA4" d="M31.352,58.07c0,0-14.945,3.086,3.666,21.829S55.5,80.18,55.5,80.18S50.23,59.154,31.352,58.07z"/>
</g>
<g>
	<path fill="#E8E8E8" d="M359.366,412.548c-6.248,16.091-10.814,42.457-26.715,52.308c-13.752,8.519-32.598-3.93-46.114-8.61
		c-17.228-5.964-51.833-12.215-58.767-31.298c-6.378-17.551,5.48-39.158,7.545-56.761c1.699-14.488,2.132-29.456,6.588-43.463
		c4.416-13.879,12.219-24.612,16.184-39.025c8.682-31.562,17.48-65.991,10.642-98.771c-4.033-19.335-4.382-45.875,10.259-61.586
		c3.472-3.725,8.861-5.37,11.908-9.557c6.766-9.299,6.629-23.249,12.379-33.436c5.436-9.628,13.124-17.945,20.26-26.318
		c10.141-11.897,19.643-17.852,36.506-18.627c32.537-1.496,64.794,10.823,60.713,46.551c-4.148,36.32-3.816,72.983-4.281,109.953
		c-0.342,27.275-0.983,54.42-7.463,81.63c-2.873,12.065-5.264,24.603-8.983,36.433c-3.061,9.73-10.325,16.03-14.923,24.753
		c-4.824,9.154-5.662,20.026-8.082,29.923C373.097,382.69,365.333,397.185,359.366,412.548z"/>
	<path fill="#F8ACA4" d="M347.971,127.57c-0.062,3.036,1.798,6.633,2.978,9.35c1.989,4.58,5.038,6.584,6.779,9.857
		c3.203,6.02,4.697,12.548,0.051,20.008c-3.382,5.427-15.385,11.347-18.355,2.185c-7.754-4.006-17.648,0.781-23.708-0.532
		c-7.401-1.604-7.921-10.783-13.413-12.236c-5.357-1.418-2.829,0.992-9.969-2.559c-7.632-3.795-6.721-4.154-4.496-13.378
		c3.424-14.208,17.016-13.851,24.674-23.389c9.066-11.291,17.738-12.911,30.445-3.977
		C342.956,112.899,348.224,115.101,347.971,127.57z"/>
	<path fill="#F8ACA4" d="M378.243,56.854c0,0,18.567,0.285-0.77,29.101c-19.337,28.817-24.691,5.436-24.691,5.436
		S355.624,62.928,378.243,56.854z"/>
	<path fill="#F8ACA4" d="M349.052,54.573c0,0,15.353-0.961,0.268,25.759c-15.084,26.72-20.236,6.415-20.236,6.415
		S330.548,61.417,349.052,54.573z"/>
	<path fill="#F8ACA4" d="M317.296,68.031c0,0,11.709-4.095,5.556,20.859c-6.153,24.956-14.364,9.579-14.364,9.579
		S304.365,77.583,317.296,68.031z"/>
	<path fill="#F8ACA4" d="M389.752,95.354c0,0,14.945,3.086-3.665,21.829c-18.611,18.743-20.483,0.281-20.483,0.281
		S370.874,96.438,389.752,95.354z"/>
</g>
</svg>
